<?xml version="1.0" standalone="no"?>
<!DOCTYPE svg PUBLIC "-//W3C//DTD SVG 1.1//EN" "http://www.w3.org/Graphics/SVG/1.1/DTD/svg11.dtd" >
<!--
2013-9-30: Created.
-->
<svg>
<metadata>
Created by iconfont
</metadata>
<defs>

<font id="iconfont" horiz-adv-x="1024" >
  <font-face
    font-family="iconfont"
    font-weight="500"
    font-stretch="normal"
    units-per-em="1024"
    ascent="896"
    descent="-128"
  />
    <missing-glyph />
    
    <glyph glyph-name="ic_wifi" unicode="&#58882;" d="M310.499556 316.776296a324.001185 324.001185 0 0 0 415.232 0 59.467852 59.467852 0 0 0 8.912592-82.75437l0.436148 1.34637-0.094815-0.113777a57.230222 57.230222 0 0 0-81.351111-8.912593 212.764444 212.764444 0 0 1-270.601481 0 57.173333 57.173333 0 0 0-70.712889 7.319704 59.448889 59.448889 0 0 0-1.820444 83.114666zM167.253333 471.495111c203.567407 161.46963 493.131852 161.46963 696.69926 0 4.077037-2.541037 7.831704-5.556148 11.150222-8.988444a57.192296 57.192296 0 0 0-1.820445-81.483852 58.69037 58.69037 0 0 0-82.356148 1.801481c-160.995556 127.772444-390.087111 127.772444-551.101629 0a58.728296 58.728296 0 0 0-69.480297 7.224889 57.192296 57.192296 0 0 0-3.090963 81.445926z m-132.247703 156.880593a763.58163 763.58163 0 0 0 967.566222 0 59.429926 59.429926 0 0 0 8.533333-82.678519 57.514667 57.514667 0 0 0-44.581926-21.769481v0.910222a56.850963 56.850963 0 0 0-36.048592 13.103407 649.291852 649.291852 0 0 1-822.916741 0c-27.079111-17.256296-62.767407-8.912593-79.758222 18.583704a59.505778 59.505778 0 0 0 7.205926 71.86963zM417.185185 71.111111a123.259259 123.259259 0 1 1 246.518519 0 123.259259 123.259259 0 0 1-246.518519 0zM436.148148 90.074074a85.333333 85.333333 0 1 1 170.666667 0 85.333333 85.333333 0 0 1-170.666667 0z"  horiz-adv-x="1024" />

    
    <glyph glyph-name="auto" unicode="&#59115;" d="M689.536 704c26.816 0 50.794667-16.64 60.202667-41.706667l78.08-207.978666 67.754666 39.125333 27.562667-47.786667-50.709333-29.269333a64.213333 64.213333 0 0 0 27.157333-52.522667v-202.368a64.298667 64.298667 0 0 0-64.298667-64.298666h-27.648V21.333333h-55.146666v75.861334H255.957333V21.333333H200.853333v75.861334H173.184a64.298667 64.298667 0 0 0-64.32 64.298666v202.368a64.213333 64.213333 0 0 0 27.2 52.522667L85.333333 445.653333l27.584 47.786667 67.733334-39.104 78.08 207.957333A64.298667 64.298667 0 0 0 318.933333 704h370.602667z m145.728-342.954667H173.184v-199.552h662.101333v199.552z m-556.288-50.090666a41.386667 41.386667 0 1 0 0-82.752 41.386667 41.386667 0 0 0 0 82.752z m455.125333 0a41.386667 41.386667 0 1 0 0-82.752 41.386667 41.386667 0 0 0 0 82.752z m-44.565333 328.746666H318.933333l-79.402666-211.52h529.386666l-79.36 211.52z m-79.573333-46.037333v-62.058667h-206.869334v62.08h206.869334z"  horiz-adv-x="1024" />

    
    <glyph glyph-name="all" unicode="&#59119;" d="M490.666667 362.666667v-256a64 64 0 0 0-64-64h-192a64 64 0 0 0-64 64v192a64 64 0 0 0 64 64h256z m298.666666 0a64 64 0 0 0 64-64v-192a64 64 0 0 0-64-64h-192a64 64 0 0 0-64 64V362.666667h256z m-362.666666-64h-192v-192h192v192z m362.666666 0h-192v-192h192v192zM426.666667 725.333333a64 64 0 0 0 64-64v-256H234.666667a64 64 0 0 0-64 64v192a64 64 0 0 0 64 64h192z m266.666666 0a160 160 0 1 0 0-320 160 160 0 0 0 0 320zM426.666667 661.333333h-192v-192h192v192z m266.666666 0a96 96 0 1 1 0-192 96 96 0 0 1 0 192z"  horiz-adv-x="1024" />

    
    <glyph glyph-name="code" unicode="&#59122;" d="M541.141333 627.136l61.717334-16.938667-132.394667-482.474666-61.717333 16.938666 132.394666 482.474667zM329.002667 597.333333l44.885333-45.610666-175.36-172.586667 175.04-167.573333-44.266667-46.229334L106.666667 378.496 329.002667 597.333333z m355.882666 0l222.336-218.837333L684.586667 165.333333l-44.266667 46.229334 175.018667 167.573333L640 551.722667 684.885333 597.333333z"  horiz-adv-x="1024" />

    
    <glyph glyph-name="data" unicode="&#59129;" d="M469.333333 744.192v-64.554667c-144.746667-20.693333-256-145.173333-256-295.637333 0-164.949333 133.717333-298.666667 298.666667-298.666667 150.464 0 274.944 111.253333 295.637333 256h64.554667c-21.12-180.181333-174.336-320-360.192-320-200.298667 0-362.666667 162.368-362.666667 362.666667 0 185.856 139.818667 339.072 320 360.192zM512 746.666667c197.973333 0 358.933333-158.656 362.602667-355.776L874.666667 384H512V746.666667z m64-70.869334V448h227.797333a299.093333 299.093333 0 0 1-220.885333 226.197333L576 675.797333z"  horiz-adv-x="1024" />

    
    <glyph glyph-name="integral" unicode="&#59130;" d="M168.106667 274.56l120.746666-57.962667 223.274667-108.138666 215.317333 104.32 128.768 61.674666a64 64 0 0 0-29.952-84.970666l-286.229333-138.624a64 64 0 0 0-55.808 0L197.994667 189.482667A64 64 0 0 0 168.106667 274.56z m687.829333 133.930667a64 64 0 0 0-29.674667-85.546667L540.010667 184.32a64 64 0 0 0-55.808 0L197.994667 322.944A64 64 0 0 0 166.826667 405.12l317.013333-149.525333 28.288-13.696 286.229333 138.624-0.149333 0.064 57.728 27.882666zM540.032 710.208l286.208-138.602667a64 64 0 0 0 0-115.2l-286.208-138.624a64 64 0 0 0-55.808 0L197.994667 456.405333a64 64 0 0 0 0 115.2L484.224 710.186667a64 64 0 0 0 55.808 0z m-27.904-57.6l-286.229333-138.602667 286.229333-138.624 286.229333 138.624-286.229333 138.602667z"  horiz-adv-x="1024" />

    
    <glyph glyph-name="play" unicode="&#59137;" d="M512 746.666667c200.298667 0 362.666667-162.368 362.666667-362.666667s-162.368-362.666667-362.666667-362.666667S149.333333 183.701333 149.333333 384 311.701333 746.666667 512 746.666667z m0-64c-164.949333 0-298.666667-133.717333-298.666667-298.666667s133.717333-298.666667 298.666667-298.666667 298.666667 133.717333 298.666667 298.666667-133.717333 298.666667-298.666667 298.666667z m-64-141.312a42.666667 42.666667 0 0 0 22.741333-6.570667l176.533334-111.232a42.666667 42.666667 0 0 0 0.32-71.978667l-176.533334-113.429333A42.666667 42.666667 0 0 0 405.333333 274.026667v224.64a42.666667 42.666667 0 0 0 42.666667 42.666666z m21.333333-81.322667v-146.922667l115.456 74.176L469.333333 460.032z"  horiz-adv-x="1024" />

    
    <glyph glyph-name="rising" unicode="&#59139;" d="M553.173333 92.16h-64l0.021334 474.581333-224.021334-224-45.269333 45.226667L521.6 689.706667l301.717333-301.696-45.269333-45.269334-224.853333 224.896v-475.477333z"  horiz-adv-x="1024" />

    
    <glyph glyph-name="QRcode" unicode="&#59140;" d="M491.925333 363.925333V42.666667H170.666667V363.925333h321.258666zM597.333333 106.666667v-64h-64v64h64z m256 85.333333v-149.333333h-128v64h64v85.333333h64z m-425.408 107.925333H234.666667V106.666667h193.258666v193.258666zM661.333333 298.666667v-128h64v-64h-128v192h64z m-277.333333-42.666667v-106.666667h-106.666667v106.666667h106.666667z m405.333333 0v-64h-64v64h64z m64 106.666667v-106.666667h-64v42.666667h-64v64h128z m-256 0v-64h-64v64h64zM491.925333 725.333333v-321.258666H170.666667V725.333333h321.258666zM853.333333 725.333333v-321.258666H532.074667V725.333333H853.333333z m-425.408-64H234.666667v-193.258666h193.258666V661.333333zM789.333333 661.333333h-193.258666v-193.258666H789.333333V661.333333z m-405.333333-42.666666v-106.666667h-106.666667v106.666667h106.666667z m362.666667 0v-106.666667h-106.666667v106.666667h106.666667z"  horiz-adv-x="1024" />

    
    <glyph glyph-name="all-fill" unicode="&#59160;" d="M490.666667 362.666667v-256a64 64 0 0 0-64-64h-192a64 64 0 0 0-64 64v192a64 64 0 0 0 64 64h256z m298.666666 0a64 64 0 0 0 64-64v-192a64 64 0 0 0-64-64h-192a64 64 0 0 0-64 64V362.666667h256zM426.666667 725.333333a64 64 0 0 0 64-64v-256H234.666667a64 64 0 0 0-64 64v192a64 64 0 0 0 64 64h192z m266.666666 0a160 160 0 1 0 0-320 160 160 0 0 0 0 320z"  horiz-adv-x="1024" />

    
    <glyph glyph-name="play-fill" unicode="&#59183;" d="M512 746.666667c200.298667 0 362.666667-162.368 362.666667-362.666667s-162.368-362.666667-362.666667-362.666667S149.333333 183.701333 149.333333 384 311.701333 746.666667 512 746.666667z m-50.56-234.666667c-19.2 0-34.773333-15.573333-34.773333-34.773333v-182.997334a34.773333 34.773333 0 0 1 53.546666-29.248l143.808 92.394667a34.773333 34.773333 0 0 1-0.256 58.666667l-143.808 90.602666a34.773333 34.773333 0 0 1-18.538666 5.354667z"  horiz-adv-x="1024" />

    
    <glyph glyph-name="column" unicode="&#59201;" d="M234.666667 42.666667a64 64 0 0 0-64 64V661.333333a64 64 0 0 0 64 64h554.666666a64 64 0 0 0 64-64v-554.666666a64 64 0 0 0-64-64H234.666667z m138.666666 618.666666H234.666667v-554.666666h138.666666V661.333333z m213.333334 0h-149.333334v-554.666666h149.333334V661.333333z m202.666666 0h-138.666666v-554.666666H789.333333V661.333333z"  horiz-adv-x="1024" />

    
    <glyph glyph-name="column1" unicode="&#59202;" d="M234.666667 42.666667a64 64 0 0 0-64 64V661.333333a64 64 0 0 0 64 64h554.666666a64 64 0 0 0 64-64v-554.666666a64 64 0 0 0-64-64H234.666667z m96 618.666666H234.666667v-554.666666h96V661.333333z m149.333333 0h-85.333333v-554.666666h85.333333V661.333333z m149.333333 0h-85.333333v-554.666666h85.333333V661.333333z m160 0h-96v-554.666666H789.333333V661.333333z"  horiz-adv-x="1024" />

    
    <glyph glyph-name="arrow-left" unicode="&#59203;" d="M641.28 617.386667l-45.226667 45.226666-278.634666-278.762666 278.613333-278.485334 45.248 45.269334-233.365333 233.237333z"  horiz-adv-x="1024" />

    
    <glyph glyph-name="all1" unicode="&#59204;" d="M490.666667 362.666667v-256a64 64 0 0 0-64-64h-192a64 64 0 0 0-64 64v192a64 64 0 0 0 64 64h256z m298.666666 0a64 64 0 0 0 64-64v-192a64 64 0 0 0-64-64h-192a64 64 0 0 0-64 64V362.666667h256z m-362.666666-64h-192v-192h192v192z m362.666666 0h-192v-192h192v192zM426.666667 725.333333a64 64 0 0 0 64-64v-256H234.666667a64 64 0 0 0-64 64v192a64 64 0 0 0 64 64h192z m266.666666 0a160 160 0 1 0 0-320 160 160 0 0 0 0 320zM426.666667 661.333333h-192v-192h192v192z m266.666666 0a96 96 0 1 1 0-192 96 96 0 0 1 0 192z"  horiz-adv-x="1024" />

    
    <glyph glyph-name="ashbin" unicode="&#59205;" d="M341.013333 501.333333l27.754667-393.450666h271.829333l27.733334 393.450666h64.106666L704.426667 103.381333a64 64 0 0 0-63.829334-59.498666H368.768a64 64 0 0 0-63.829333 59.52L276.885333 501.333333h64.128z m139.306667-19.818666v-298.666667h-64v298.666667h64z m117.013333 0v-298.666667h-64v298.666667h64zM181.333333 608h640v-64h-640v64z m453.482667 106.666667v-64h-256v64h256z"  horiz-adv-x="1024" />

    
    <glyph glyph-name="attachent" unicode="&#59206;" d="M787.968 423.722667L505.173333 139.264a151.488 151.488 0 0 0-215.168 0c-59.52 59.882667-59.52 157.077333 0 216.96l287.018667 288.725333a91.349333 91.349333 0 0 0 129.770667 0 93.098667 93.098667 0 0 0 0-131.072L428.032 233.493333a31.701333 31.701333 0 0 0-45.098667 0 32.64 32.64 0 0 0 0 45.909334l250.133334 251.648-45.397334 45.12-250.133333-251.648a96.64 96.64 0 0 1 0-136.170667 95.701333 95.701333 0 0 1 135.893333 0l278.72 280.405333a157.098667 157.098667 0 0 1 0 221.312 155.349333 155.349333 0 0 1-220.522666 0L244.608 401.365333c-84.373333-84.864-84.373333-222.378667 0-307.221333a215.488 215.488 0 0 1 305.92 0l282.837333 284.458667-45.397333 45.12z"  horiz-adv-x="1024" />

    
    <glyph glyph-name="browse" unicode="&#59207;" d="M512 661.333333c131.946667 0 252.245333-80.512 360.874667-241.536a64 64 0 0 0 2.410666-67.712l-2.410666-3.882666-6.058667-8.853334C759.786667 184.234667 641.493333 106.666667 512 106.666667c-131.946667 0-252.245333 80.512-360.874667 241.536a64 64 0 0 0-2.410666 67.712l2.410666 3.882666 6.058667 8.853334C264.213333 583.765333 382.506667 661.333333 512 661.333333z m0-64c-105.770667 0-206.037333-65.749333-301.952-204.757333L204.181333 384l5.888-8.597333C306.069333 236.352 406.314667 170.666667 512 170.666667c105.770667 0 206.037333 65.749333 301.952 204.757333l5.866667 8.576-5.888 8.597333C717.930667 531.648 617.685333 597.333333 512 597.333333z m0-77.482666a141.482667 141.482667 0 1 0 0-282.944 141.482667 141.482667 0 0 0 0 282.944z m0-64a77.482667 77.482667 0 1 1 0-154.944 77.482667 77.482667 0 0 1 0 154.944z"  horiz-adv-x="1024" />

    
    <glyph glyph-name="auto1" unicode="&#59208;" d="M689.536 704c26.816 0 50.794667-16.64 60.202667-41.706667l78.08-207.978666 67.754666 39.125333 27.562667-47.786667-50.709333-29.269333a64.213333 64.213333 0 0 0 27.157333-52.522667v-202.368a64.298667 64.298667 0 0 0-64.298667-64.298666h-27.648V21.333333h-55.146666v75.861334H255.957333V21.333333H200.853333v75.861334H173.184a64.298667 64.298667 0 0 0-64.32 64.298666v202.368a64.213333 64.213333 0 0 0 27.2 52.522667L85.333333 445.653333l27.584 47.786667 67.733334-39.104 78.08 207.957333A64.298667 64.298667 0 0 0 318.933333 704h370.602667z m145.728-342.954667H173.184v-199.552h662.101333v199.552z m-556.288-50.090666a41.386667 41.386667 0 1 0 0-82.752 41.386667 41.386667 0 0 0 0 82.752z m455.125333 0a41.386667 41.386667 0 1 0 0-82.752 41.386667 41.386667 0 0 0 0 82.752z m-44.565333 328.746666H318.933333l-79.402666-211.52h529.386666l-79.36 211.52z m-79.573333-46.037333v-62.058667h-206.869334v62.08h206.869334z"  horiz-adv-x="1024" />

    
    <glyph glyph-name="niunai" unicode="&#58933;" d="M512.2 383.57m-448.09 0a448.09 448.09 0 1 1 896.18 0 448.09 448.09 0 1 1-896.18 0ZM736.14 721.67m-15.9 0a15.9 15.9 0 1 1 31.8 0 15.9 15.9 0 1 1-31.8 0ZM853.1 474.92m-43.07 0a43.07 43.07 0 1 1 86.14 0 43.07 43.07 0 1 1-86.14 0ZM600.54 10.78m-23.31 0a23.31 23.31 0 1 1 46.62 0 23.31 23.31 0 1 1-46.62 0ZM147.32 305.64m-11.24 0a11.24 11.24 0 1 1 22.48 0 11.24 11.24 0 1 1-22.48 0ZM179.28 609.02l-3.61 2.5-4.39 0.17 2.5 3.61 0.16 4.39 3.61-2.51 4.39-0.16-2.5-3.61zM218.06 474.92l-3.61 2.5-4.39 0.16 2.5 3.61 0.16 4.39 3.61-2.5 4.39-0.16-2.5-3.61zM284.52 646.61l-10.44 7.24-12.69 0.47 7.24 10.44 0.47 12.69 10.43-7.24 12.7-0.47-7.24-10.44zM326.97 205.68c-14.71 0-26.64 11.93-26.64 26.64V422.54c0 14.71 11.93 26.64 26.64 26.64H518.7c-7.75 19.37-26.68 33.05-48.82 33.05h-154.4c-29.04 0-52.58-23.54-52.58-52.58V225.2c0-29.04 23.54-52.58 52.58-52.58h154.4c22.14 0 41.06 13.69 48.82 33.05H326.97zM469.89 165.13h-154.4c-33.13 0-60.08 26.95-60.08 60.08V429.66c0 33.13 26.95 60.08 60.08 60.08h154.4c24.7 0 46.59-14.82 55.78-37.76l4.12-10.29H326.97c-10.56 0-19.14-8.59-19.14-19.14v-190.21c0-10.56 8.59-19.14 19.14-19.14h202.82l-4.12-10.29c-9.19-22.96-31.08-37.78-55.78-37.78z m-154.4 309.6c-24.86 0-45.08-20.22-45.08-45.08V225.2c0-24.86 20.22-45.08 45.08-45.08h154.4c14.51 0 27.74 6.82 36.1 18.05H326.97c-18.83 0-34.14 15.32-34.14 34.14V422.54c0 18.83 15.32 34.14 34.14 34.14h179.02c-8.36 11.23-21.59 18.05-36.1 18.05h-154.4zM728.1 78.54H410.82c-18.45 0-33.4 14.95-33.4 33.4v296.2c0 5.34 1.28 10.6 3.73 15.34l62.1 120.05c2.43 4.7 3.71 9.9 3.73 15.19l0.29 62.34c0.08 18.39 15.01 33.25 33.4 33.25H658.3c18.37 0 33.29-14.83 33.4-33.2l0.37-62.01c0.03-5.32 1.33-10.55 3.79-15.26l61.84-118.43a33.426 33.426 0 0 0 3.79-15.46v-298.02c0.01-18.43-14.95-33.39-33.39-33.39zM728.1 71.04H410.82c-22.55 0-40.9 18.35-40.9 40.9v296.2c0 6.51 1.58 13.01 4.57 18.79l62.1 120.05c1.87 3.62 2.88 7.7 2.89 11.78l0.29 62.34c0.1 22.45 18.45 40.71 40.9 40.71H658.3c22.42 0 40.76-18.24 40.9-40.65l0.37-62c0.02-4.1 1.04-8.2 2.94-11.83l61.84-118.43a41.068 41.068 0 0 0 4.65-18.93v-298.02c0-22.56-18.35-40.91-40.9-40.91zM480.67 646.81c-14.21 0-25.83-11.56-25.9-25.78l-0.29-62.34a41.063 41.063 0 0 0-4.57-18.6l-62.1-120.05c-1.89-3.66-2.9-7.78-2.9-11.9v-296.2c0-14.28 11.62-25.9 25.9-25.9H728.1c14.28 0 25.9 11.62 25.9 25.9V409.96c0 4.16-1.02 8.3-2.94 11.99l-61.84 118.43c-3 5.75-4.61 12.21-4.64 18.69l-0.37 62.01c-0.08 14.2-11.7 25.74-25.9 25.74H480.67zM753.78 118.55l0.2 290.24c0.1 5.35-0.88 9.64-3.88 14.89l-60.16 115.25c-2.11 4.15-4.06 8.14-5.02 14.92l-0.6 40.71c-8.71-2.39-17.06-6.3-24.67-11.85a74.78 74.78 0 0 1-13.83-13.07c-2.9-3.53-3.42-8.45-1.32-12.5l54.04-104.88c3.33-4.31 4.58-9.48 4.58-14.72v-290.25c0-17.96-14.37-32.53-32.09-32.53h-286.1c-0.99-14.74 8.68-30.32 31.87-28.73h304.89c23.84-2.02 34.17 14.07 32.09 32.52zM689.36 590.27h-246c-12.7 0-23 10.3-23 23v29.66c0 25.22 20.45 45.67 45.67 45.67H666.7c25.22 0 45.67-20.45 45.67-45.67v-29.66c-0.01-12.71-10.31-23-23.01-23zM689.36 582.77h-246c-16.82 0-30.5 13.68-30.5 30.5v29.66c0 29.32 23.85 53.17 53.17 53.17H666.7c29.32 0 53.17-23.85 53.17-53.17v-29.66c-0.01-16.82-13.69-30.5-30.51-30.5zM466.03 681.1c-21.04 0-38.17-17.12-38.17-38.17v-29.66c0-8.55 6.95-15.5 15.5-15.5h246c8.55 0 15.5 6.95 15.5 15.5v29.66c0 21.05-17.12 38.17-38.17 38.17H466.03zM496.8 626.6h-39.11c-7.49 0-13.56 6.07-13.56 13.56s6.07 13.56 13.56 13.56h39.11c7.49 0 13.56-6.07 13.56-13.56s-6.07-13.56-13.56-13.56zM676.8 626.6H552.36c-7.49 0-13.56 6.07-13.56 13.56s6.07 13.56 13.56 13.56H676.8c7.49 0 13.56-6.07 13.56-13.56s-6.07-13.56-13.56-13.56zM425.03 515.81h291.33v-15H425.03zM635.9 123.39a7.5 7.5 0 0 0-6.47 3.7c-2.1 3.57-0.9 8.17 2.67 10.26 7.16 4.2 24.53 16.35 31.29 38.4 3.22 10.49 5.18 27.36-3.72 48.19-6.33 14.8-16.01 22.55-24.56 29.38-8.95 7.16-18.2 14.56-18.71 27.95-1.17 30.98 20.23 59.38 50.9 67.53 4 1.07 8.11-1.32 9.17-5.32s-1.32-8.11-5.32-9.17c-23.95-6.37-40.68-28.43-39.77-52.47 0.24-6.24 4.65-10.05 13.09-16.8 9.43-7.54 21.17-16.93 28.98-35.2 10.69-24.99 8.23-45.6 4.28-58.48-8.01-26.11-27.27-40.61-38.04-46.93-1.19-0.71-2.5-1.04-3.79-1.04zM539.8 176.05c-2.57 0-5.08 1.33-6.48 3.71-2.1 3.57-0.9 8.17 2.67 10.26 2.95 1.73 10.11 6.73 12.87 15.72 1.91 6.23 1.37 12.9-1.6 19.84-2.57 6.01-6.52 9.17-10.33 12.22-4.43 3.55-9.95 7.96-10.26 16.06-0.62 16.36 10.66 31.35 26.81 35.64 4 1.07 8.11-1.32 9.17-5.32s-1.32-8.11-5.32-9.17c-9.44-2.51-16.03-11.17-15.67-20.58 0.04-1.07 1.14-2.11 4.64-4.91 4.51-3.61 10.7-8.56 14.75-18.04 5.48-12.82 4.2-23.46 2.15-30.14-4.15-13.52-14.07-21-19.62-24.26a7.521 7.521 0 0 0-3.78-1.03z"  horiz-adv-x="1024" />

    
    <glyph glyph-name="huluobu" unicode="&#58934;" d="M511.56 383.83m-448.09 0a448.09 448.09 0 1 1 896.18 0 448.09 448.09 0 1 1-896.18 0ZM736.14 721.67m-15.9 0a15.9 15.9 0 1 1 31.8 0 15.9 15.9 0 1 1-31.8 0ZM147.32 305.64m-11.24 0a11.24 11.24 0 1 1 22.48 0 11.24 11.24 0 1 1-22.48 0ZM179.28 609.02l-3.61 2.5-4.39 0.17 2.5 3.61 0.16 4.39 3.61-2.51 4.39-0.16-2.5-3.61zM218.06 474.92l-3.61 2.5-4.39 0.16 2.5 3.61 0.16 4.39 3.61-2.5 4.39-0.16-2.5-3.61zM284.52 646.61l-10.44 7.24-12.69 0.47 7.24 10.44 0.47 12.69 10.43-7.24 12.7-0.47-7.24-10.44zM733.67 453.07c0-140.35-64.69-387.17-215.75-420.72-4.01-0.89-8.16-0.82-12.17 0.08-129.3 29.08-216.29 280.81-216.29 420.64 0 142.12 85.66 147.09 222.68 124.88 129.39 26.48 221.53 17.24 221.53-124.88zM512.08 24.22c-2.66 0-5.34 0.3-7.98 0.89-32.13 7.23-63.19 27.64-92.32 60.69-25.58 29.02-48.97 66.81-69.5 112.33-36.64 81.24-60.32 181.31-60.32 254.94 0 55.29 12.88 93.12 39.37 115.66 18.92 16.1 45.13 24.71 80.13 26.32 27.8 1.28 61.93-1.65 110.52-9.47 43.88 8.91 77.64 12.54 106.19 11.41 34.5-1.37 60.85-9.86 80.57-25.95 28.55-23.3 42.43-61.89 42.43-117.96 0-62.84-13.61-162.38-51.81-253.31-28.96-68.94-81.93-155.21-169.81-174.73-2.43-0.55-4.94-0.82-7.47-0.82z m-97.56 556.06c-35.71 0-63.94-6.36-83.47-22.98-22.94-19.52-34.09-53.61-34.09-104.24 0-71.67 23.16-169.32 58.99-248.77 42.24-93.65 96.02-152.09 151.44-164.55 3-0.67 6.08-0.7 8.9-0.07 81.62 18.13 131.64 100.22 159.24 165.9 37.34 88.88 50.64 186.13 50.64 247.5 0 51.28-12.08 86.06-36.92 106.34-31.93 26.06-86.09 29.51-175.61 11.19l-1.35-0.28-1.36 0.22c-36.27 5.88-68.61 9.74-96.41 9.74zM409.138208 574.408224a44.04 94.61 67.939 1 1 33.082276 81.631179 44.04 94.61 67.939 1 1-33.082276-81.631179ZM470.71 553.58c-19.54 0-42.15 4.84-64.38 13.86-24.41 9.9-45.66 23.72-59.82 38.92-15.54 16.68-21.02 33.44-15.45 47.2 5.58 13.76 21.19 21.97 43.95 23.12 20.76 1.05 45.63-3.82 70.04-13.71s45.66-23.72 59.82-38.92c15.54-16.68 21.02-33.44 15.45-47.2-5.58-13.76-21.19-21.97-43.95-23.12-1.85-0.11-3.74-0.15-5.66-0.15z m-89.97 108.24c-1.69 0-3.34-0.04-4.97-0.12-16.36-0.83-27.59-5.85-30.81-13.78s1.35-19.35 12.52-31.34c12.71-13.64 32.05-26.15 54.48-35.25 47.57-19.28 87.96-14.87 94.45 1.14 6.49 16.02-19.43 47.3-67 66.58-20.46 8.31-41.08 12.77-58.67 12.77zM524.822072 569.144408a94.61 44.04 60 1 1 94.61 163.869327 94.61 44.04 60 1 1-94.61-163.869327ZM536.35 558.72c-5.57 0-10.71 1.31-15.28 3.95-12.86 7.42-18.84 24.02-16.83 46.72 1.83 20.7 10.08 44.66 23.25 67.48 13.17 22.81 29.79 41.95 46.81 53.88 18.66 13.09 36.02 16.2 48.88 8.78s18.84-24.02 16.83-46.72c-1.83-20.7-10.08-44.66-23.25-67.48-13.17-22.81-29.79-41.95-46.81-53.88-12.02-8.43-23.51-12.73-33.6-12.73z m71.49 169.73c-6.89 0-15.55-3.42-24.93-9.99-15.26-10.7-30.33-28.14-42.43-49.09s-19.67-42.73-21.3-61.29c-1.44-16.32 1.98-28.14 9.39-32.41 7.41-4.28 19.35-1.33 32.77 8.07 15.26 10.7 30.33 28.14 42.43 49.09 25.67 44.46 26.88 85.06 11.91 93.71-2.23 1.28-4.87 1.91-7.84 1.91zM444.23 580.46c-45.05 18.26-75.27 48.62-67.5 67.8 2.81 6.94 10.21 11.46 20.65 13.55-26.82 3.88-47.78-0.69-53-13.55-7.78-19.18 22.44-49.54 67.5-67.8 28.76-11.66 56.6-15.57 75.01-11.88-13.2 1.91-27.81 5.86-42.66 11.88zM586.97 672.03a6.396 6.396 0 0 0-2.34 8.74l11.35 19.66a6.396 6.396 0 0 0 8.74 2.34 6.396 6.396 0 0 0 2.34-8.74l-11.35-19.66c-1.76-3.06-5.67-4.11-8.74-2.34zM676.92 399.69a7.498 7.498 0 0 0-7 10.2c15.96 41.4 5.91 85.59-23.88 105.09-19.89 13.01-42.92 10.75-54.88 8.25a7.505 7.505 0 0 0-8.88 5.8 7.505 7.505 0 0 0 5.8 8.88c14.23 2.98 41.75 5.6 66.17-10.38 35.67-23.34 48.14-75.09 29.66-123.04-1.13-2.97-3.97-4.8-6.99-4.8zM495.36 52.85c-1.79 0-3.58 0.63-5.01 1.92-33.48 30.09-62.88 64.26-87.38 101.55-41.49 63.15-68.51 133.85-80.29 210.15a7.503 7.503 0 1 0 14.83 2.29c11.45-74.16 37.69-142.86 78-204.2 23.8-36.22 52.35-69.41 84.87-98.63a7.498 7.498 0 0 0 0.56-10.59 7.48 7.48 0 0 0-5.58-2.49z"  horiz-adv-x="1024" />

    
    <glyph glyph-name="xiaolian" unicode="&#58940;" d="M511.82 384.04m-448.09 0a448.09 448.09 0 1 1 896.18 0 448.09 448.09 0 1 1-896.18 0ZM736.14 721.67m-15.9 0a15.9 15.9 0 1 1 31.8 0 15.9 15.9 0 1 1-31.8 0ZM416.08 747.45m-15.9 0a15.9 15.9 0 1 1 31.8 0 15.9 15.9 0 1 1-31.8 0ZM401.89 11.06m-43.07 0a43.07 43.07 0 1 1 86.14 0 43.07 43.07 0 1 1-86.14 0ZM766.87 584.52m-23.31 0a23.31 23.31 0 1 1 46.62 0 23.31 23.31 0 1 1-46.62 0ZM301.75 683.72m-23.31 0a23.31 23.31 0 1 1 46.62 0 23.31 23.31 0 1 1-46.62 0ZM299 192.12m-11.24 0a11.24 11.24 0 1 1 22.48 0 11.24 11.24 0 1 1-22.48 0ZM179.28 609.02l-3.61 2.5-4.39 0.17 2.5 3.61 0.16 4.39 3.61-2.51 4.39-0.16-2.5-3.61zM129.94 384.2l-3.61 2.51-4.39 0.16 2.51 3.61 0.16 4.39 3.61-2.51 4.39-0.16-2.51-3.61zM871.88 404.56l-10.44 7.24-12.69 0.47 7.24 10.43 0.47 12.7 10.43-7.24 12.7-0.47-7.24-10.44zM205.08 432.37l-10.44 7.24-12.7 0.47 7.25 10.44 0.46 12.69 10.44-7.24 12.7-0.47-7.25-10.43zM561.96 347.09m-258.28 0a258.28 258.28 0 1 1 516.56 0 258.28 258.28 0 1 1-516.56 0ZM511.72 380.96m-258.28 0a258.28 258.28 0 1 1 516.56 0 258.28 258.28 0 1 1-516.56 0ZM511.72 115.19c-70.99 0-137.73 27.65-187.93 77.84-50.2 50.2-77.84 116.94-77.84 187.93s27.65 137.73 77.84 187.93c50.2 50.2 116.94 77.84 187.93 77.84 70.99 0 137.73-27.65 187.93-77.84 50.2-50.2 77.84-116.94 77.84-187.93s-27.65-137.74-77.84-187.93-116.94-77.84-187.93-77.84z m0 516.55c-138.28 0-250.78-112.5-250.78-250.78s112.5-250.78 250.78-250.78S762.5 242.68 762.5 380.96 650 631.74 511.72 631.74zM760.97 373.51c0.78-130.57-110.79-237.34-248.09-236.78-97.11 0.4-165.8 27.95-207.6 110.84-29.71 58.91-27.5 128.02 5.71 185.22 45.75 78.8 39.01 113.23 163.85 128.14 13.32 1.59 57.42-3.89 66.75-13.07 188.02-185.06 218.65-51.41 219.38-174.35zM383.67 447.44m-18.22 0a18.22 18.22 0 1 1 36.44 0 18.22 18.22 0 1 1-36.44 0ZM640.12 444.99m-39.99 0a39.99 39.99 0 1 1 79.98 0 39.99 39.99 0 1 1-79.98 0ZM505.02 205.89c-43.71 0-78.13 14.6-93.44 22.43-3.69 1.89-5.15 6.41-3.26 10.09 1.89 3.69 6.41 5.15 10.09 3.26 18.97-9.71 69.63-30.64 130.08-15.4 79.71 20.09 115.96 87.92 122.41 101.32 1.8 3.73 6.28 5.3 10.01 3.5 3.73-1.8 5.3-6.28 3.5-10.01-3.82-7.93-14.87-28.73-34.79-50.4-27.31-29.7-60.1-49.54-97.46-58.95a192.142 192.142 0 0 0-47.14-5.84zM147.67 311.5c-3 0-5.83 1.81-6.99 4.78-13.44 34.44-32.02 104.11-5.46 183.77 19.11 57.33 53.81 95.8 79.55 117.98 3.14 2.7 7.87 2.35 10.58-0.79s2.35-7.87-0.79-10.58c-24.31-20.95-57.08-57.27-75.11-111.36-25.07-75.18-7.5-141.02 5.21-173.57 1.51-3.86-0.4-8.21-4.26-9.71-0.9-0.36-1.82-0.52-2.73-0.52z"  horiz-adv-x="1024" />

    
    <glyph glyph-name="yifu" unicode="&#58945;" d="M512.1 383.97m-448.09 0a448.09 448.09 0 1 1 896.18 0 448.09 448.09 0 1 1-896.18 0ZM736.14 721.67m-15.9 0a15.9 15.9 0 1 1 31.8 0 15.9 15.9 0 1 1-31.8 0ZM416.08 747.45m-15.9 0a15.9 15.9 0 1 1 31.8 0 15.9 15.9 0 1 1-31.8 0ZM544.11 11.91m-23.31 0a23.31 23.31 0 1 1 46.62 0 23.31 23.31 0 1 1-46.62 0ZM160.03 496.45m-23.31 0a23.31 23.31 0 1 1 46.62 0 23.31 23.31 0 1 1-46.62 0ZM488.15 737.56m-23.31 0a23.31 23.31 0 1 1 46.62 0 23.31 23.31 0 1 1-46.62 0ZM208.61 244.8m-11.24 0a11.24 11.24 0 1 1 22.48 0 11.24 11.24 0 1 1-22.48 0ZM179.28 609.02l-3.61 2.5-4.39 0.17 2.5 3.61 0.16 4.39 3.61-2.51 4.39-0.16-2.5-3.61zM129.94 384.2l-3.61 2.51-4.39 0.16 2.51 3.61 0.16 4.39 3.61-2.51 4.39-0.16-2.51-3.61zM880.88 383.87l-10.44 7.25-12.69 0.46 7.24 10.44 0.47 12.7 10.43-7.25 12.7-0.46-7.24-10.44zM205.08 432.37l-10.44 7.24-12.7 0.47 7.25 10.44 0.46 12.69 10.44-7.24 12.7-0.47-7.25-10.43zM861.75 442.59l-100.3 132.63a21.427 21.427 0 0 1-17.08 8.5h-73.88c-0.4-21.96-46.73-39.71-103.82-39.71s-103.42 17.75-103.82 39.71h-74.72c-6.71 0-13.03-3.15-17.08-8.5L270.77 442.65c-3.11-4.11-2.45-9.94 1.49-13.26l93.02-78.23a4.703 4.703 0 0 1 6.41 0.34l23.04 23.95L378.85 339c-0.91-2.09-1.38-4.35-1.38-6.63v-243.79c0-9.4 7.62-17.02 17.02-17.02h343.5c9.4 0 17.02 7.62 17.02 17.02V332.25c0 2.36-0.5 4.69-1.47 6.84l-15.79 34.92 24.99-22.57a4.704 4.704 0 0 1 6.2-0.09l91.38 78.02c3.9 3.34 4.53 9.13 1.43 13.22zM807.59 498.93L707.28 631.55a21.427 21.427 0 0 1-17.08 8.5h-73.88c-0.4-21.96-46.73-39.71-103.82-39.71s-103.42 17.75-103.82 39.71h-74.72c-6.71 0-13.03-3.15-17.08-8.5L216.61 498.98c-3.11-4.11-2.45-9.94 1.49-13.26l93.02-78.23a4.703 4.703 0 0 1 6.41 0.34l23.04 23.95-15.89-36.45c-0.91-2.09-1.38-4.35-1.38-6.63v-243.79c0-9.4 7.62-17.02 17.02-17.02h343.5c9.4 0 17.02 7.62 17.02 17.02V388.58c0 2.36-0.5 4.69-1.47 6.84l-15.79 34.92 24.99-22.57a4.704 4.704 0 0 1 6.2-0.09l91.38 78.02c3.9 3.34 4.53 9.14 1.44 13.23zM683.83 120.39h-343.5c-13.52 0-24.52 11-24.52 24.52V388.7c0 3.33 0.68 6.57 2.01 9.63l0.58 1.33c-4-1.47-8.64-0.81-12.09 2.09l-93.02 78.23c-7 5.89-8.17 16.22-2.65 23.52l100.27 132.57c5.43 7.18 14.06 11.47 23.06 11.47h82.08l0.13-7.36c0.25-13.51 37.01-32.35 96.33-32.35 59.31 0 96.08 18.84 96.33 32.35l0.13 7.36h81.24c9.01 0 17.63-4.29 23.06-11.47l100.31-132.63c5.48-7.25 4.36-17.54-2.55-23.44l-91.38-78.02c-4.15-3.54-10.12-3.84-14.58-0.94l1.15-2.54c1.42-3.14 2.14-6.48 2.14-9.93V144.9c0-13.51-11.01-24.51-24.53-24.51zM364.15 467.11l-32.59-74.78c-0.5-1.15-0.76-2.38-0.76-3.63v-243.79c0-5.25 4.27-9.52 9.52-9.52h343.5c5.25 0 9.53 4.27 9.53 9.52V388.58c0 1.3-0.27 2.56-0.81 3.75l-30.6 67.65 49.83-44.99 89.51 76.42c0.88 0.75 1.02 2.06 0.32 2.98L701.3 627.03a13.982 13.982 0 0 1-11.1 5.52h-67.67c-8.8-25.85-60.95-39.71-110.03-39.71s-101.24 13.86-110.03 39.71h-68.51c-4.34 0-8.48-2.06-11.1-5.52L222.59 494.46c-0.7-0.93-0.55-2.24 0.34-2.99l91.01-76.55 50.21 52.19zM711.62 415.23l89.51 76.42c0.88 0.75 1.02 2.06 0.32 2.98L701.14 627.26a13.982 13.982 0 0 1-11.1 5.52h-67.69c-0.66-1.9-1.56-3.76-2.7-5.58l55.1-72.85c5.48-7.25 4.36-17.54-2.55-23.44l-91.38-78.02c-4.15-3.54-10.12-3.84-14.58-0.94l1.15-2.53c1.42-3.14 2.14-6.48 2.14-9.93v-243.67c0-13.52-11-24.52-24.52-24.52H330.64v-26.14c0-5.25 4.27-9.52 9.52-9.52h343.5c5.25 0 9.53 4.27 9.53 9.52V388.82c0 1.3-0.27 2.56-0.81 3.75l-30.6 67.65 49.84-44.99zM664 146.83h-57c-4.14 0-7.5 3.36-7.5 7.5s3.36 7.5 7.5 7.5h57c0.83 0 1.5 0.67 1.5 1.5v68.33c0 4.14 3.36 7.5 7.5 7.5s7.5-3.36 7.5-7.5v-68.33c0-9.09-7.4-16.5-16.5-16.5zM515.72 520.48c-11.07 0-22.12 1.03-33.11 3.09-41.86 7.86-72.21 28.88-90.29 45.12-3.08 2.77-3.34 7.51-0.57 10.59s7.51 3.34 10.59 0.57c16.66-14.97 44.59-34.32 83.04-41.54 68.43-12.85 122.8 22.27 137.84 33.33 3.33 2.46 8.03 1.74 10.49-1.59 2.46-3.34 1.74-8.03-1.59-10.49-10.14-7.46-26.96-18.14-49.51-26.59-22.21-8.32-44.6-12.49-66.89-12.49z"  horiz-adv-x="1024" />

    
    <glyph glyph-name="kouhong" unicode="&#58946;" d="M511.98 383.55m-448.09 0a448.09 448.09 0 1 1 896.18 0 448.09 448.09 0 1 1-896.18 0ZM736.14 721.67m-15.9 0a15.9 15.9 0 1 1 31.8 0 15.9 15.9 0 1 1-31.8 0ZM416.08 747.45m-15.9 0a15.9 15.9 0 1 1 31.8 0 15.9 15.9 0 1 1-31.8 0ZM691.24 32.32m-23.31 0a23.31 23.31 0 1 1 46.62 0 23.31 23.31 0 1 1-46.62 0ZM160.03 496.45m-23.31 0a23.31 23.31 0 1 1 46.62 0 23.31 23.31 0 1 1-46.62 0ZM347.02 619.69m-23.31 0a23.31 23.31 0 1 1 46.62 0 23.31 23.31 0 1 1-46.62 0ZM208.61 244.8m-11.24 0a11.24 11.24 0 1 1 22.48 0 11.24 11.24 0 1 1-22.48 0ZM179.28 609.02l-3.61 2.5-4.39 0.17 2.5 3.61 0.16 4.39 3.61-2.51 4.39-0.16-2.5-3.61zM129.94 384.2l-3.61 2.51-4.39 0.16 2.51 3.61 0.16 4.39 3.61-2.51 4.39-0.16-2.51-3.61zM880.88 383.87l-10.44 7.25-12.69 0.46 7.24 10.44 0.47 12.7 10.43-7.25 12.7-0.46-7.24-10.44zM205.08 432.37l-10.44 7.24-12.7 0.47 7.25 10.44 0.46 12.69 10.44-7.24 12.7-0.47-7.25-10.43zM612.96 52.71H452.12c-17.54 0-31.75 14.21-31.75 31.75V278.69c0 17.54 14.21 31.75 31.75 31.75h160.83c17.54 0 31.75-14.21 31.75-31.75v-194.22c0.01-17.54-14.21-31.76-31.74-31.76zM596.97 310.44H468.11V539.13c0 9.14 2.89 17.88 7.99 24.2l89.51 110.78c6.49 8.04 16.79 8.57 23.43 0.74 4.87-5.73 7.92-14 7.92-23.19v-341.22zM571.84 86.67H411.01c-17.54 0-31.75 14.21-31.75 31.75V312.64c0 17.54 14.21 31.75 31.75 31.75h160.83c17.54 0 31.75-14.21 31.75-31.75v-194.22c0-17.53-14.21-31.75-31.75-31.75zM571.84 79.17H411.01c-21.64 0-39.25 17.61-39.25 39.25V312.64c0 21.64 17.61 39.25 39.25 39.25h160.83c21.64 0 39.25-17.61 39.25-39.25v-194.22c0-21.64-17.6-39.25-39.25-39.25zM411.01 336.89c-13.37 0-24.25-10.88-24.25-24.25v-194.22c0-13.37 10.88-24.25 24.25-24.25h160.83c13.37 0 24.25 10.88 24.25 24.25V312.64c0 13.37-10.88 24.25-24.25 24.25H411.01zM555.86 344.39H427v228.7c0 9.14 2.89 17.88 7.99 24.2l89.51 110.78c6.49 8.04 16.79 8.57 23.43 0.74 4.87-5.73 7.92-14 7.92-23.19v-341.23zM563.36 336.89H419.5v236.2c0 10.94 3.43 21.21 9.65 28.91l89.51 110.78c4.61 5.71 11.08 9.03 17.74 9.11 6.54 0.09 12.67-2.84 17.24-8.23 6.26-7.37 9.71-17.33 9.71-28.04v-348.73z m-128.86 15h113.86V685.62c0 7.06-2.24 13.74-6.14 18.33-1.64 1.93-3.55 2.94-5.55 2.94h-0.07c-2.21-0.03-4.43-1.29-6.26-3.54l-89.52-110.78c-4.02-4.97-6.32-12.07-6.32-19.48v-221.2zM542.22 703.87c-0.69 0.81-1.42 1.45-2.19 1.93v-338.32H434.5v-15.67h113.86V685.54c0 7.06-2.24 13.74-6.14 18.33zM571.64 336.94h-22.41v-179.26c0-13.51-10.95-24.46-24.46-24.46H386.76v-14.54c0-13.51 10.95-24.46 24.46-24.46h160.42c13.51 0 24.46 10.95 24.46 24.46V312.49c-0.01 13.5-10.96 24.45-24.46 24.45zM421.06 175.93c-4.14 0-7.5 3.36-7.5 7.5V292.49c0 4.14 3.36 7.5 7.5 7.5 4.14 0 7.5-3.36 7.5-7.5v-109.05c0-4.15-3.36-7.51-7.5-7.51z"  horiz-adv-x="1024" />

    
    <glyph glyph-name="jiuye_pingce-21" unicode="&#59096;" d="M1024 384c0-431.232-80.768-512-512-512S0-47.232 0 384 80.768 896 512 896s512-80.768 512-512zM512.0512 546.0352m-108.0832 0a108.0832 108.0832 0 1 1 216.1664 0 108.0832 108.0832 0 1 1-216.1664 0ZM407.488 423.5392h-76.544c-23.3472 0-42.2784-25.8176-42.2784-57.6512v-172.928c0-31.8464 18.944-57.6512 42.2784-57.6512H498.048l-90.56 288.2304zM452.7744 380.3008l52.0704-165.7344 52.0704 165.7344-52.0704 43.2384zM706.5984 337.0752a115.2896 115.2896 0 1 1 0-230.592 115.2896 115.2896 0 0 1 0 230.592z m-38.016-108.288l51.712 51.6992a14.4 14.4 0 1 0 20.3776-20.3776l-51.712-51.712a14.3616 14.3616 0 0 0-20.3904 0 14.4 14.4 0 0 0 0 20.3776z m86.4768-65.6256h-87.9104a14.4128 14.4128 0 1 0 0 28.8256h87.9104a14.4128 14.4128 0 1 0 0-28.8256zM591.3088 221.7728a115.2896 115.2896 0 0 0 115.2896 115.3024c4.8896 0 9.6768-0.4096 14.4128-0.9984v29.824c0 31.8336-18.9312 57.6384-42.2784 57.6384h-76.544L511.6416 135.296h118.8864a114.8928 114.8928 0 0 0-39.2064 86.464z"  horiz-adv-x="1024" />

    
    <glyph glyph-name="jiuye_shezhi-14" unicode="&#59097;" d="M1024 384c0-431.232-80.768-512-512-512S0-47.232 0 384 80.768 896 512 896s512-80.768 512-512zM758.528 240.4352m-36.032 0a36.032 36.032 0 1 1 72.064 0 36.032 36.032 0 1 1-72.064 0ZM758.528 356.1344a115.2896 115.2896 0 1 1 0-230.5792 115.2896 115.2896 0 0 1 0 230.5792z m64.8448-115.6992c0-4.6848-0.5504-9.216-1.4976-13.632l8.3456-8.896c2.2144-2.3552 2.6112-5.888 0.9984-8.6784l-8.96-15.5392a7.3344 7.3344 0 0 0-8.0256-3.4688l-11.8272 2.7648a65.4848 65.4848 0 0 0-24.3712-14.0544l-3.52-11.648a7.3344 7.3344 0 0 0-7.0144-5.2096h-17.9456a7.3344 7.3344 0 0 0-7.0144 5.2096l-3.5328 11.648a65.4848 65.4848 0 0 0-24.3584 14.0544l-11.8272-2.7648a7.3344 7.3344 0 0 0-8.0256 3.4688l-8.96 15.5392a7.3344 7.3344 0 0 0 0.9984 8.6784l8.3328 8.896a64.6912 64.6912 0 0 0-1.4976 13.632c0 4.9024 0.6528 9.6512 1.6896 14.2336l-8.5248 9.1008a7.3344 7.3344 0 0 0-1.0112 8.6784l8.9728 15.5392a7.3344 7.3344 0 0 0 8.0256 3.4816l12.5824-2.944a64.5376 64.5376 0 0 0 23.3472 13.3504l3.7888 12.5184a7.3344 7.3344 0 0 0 7.0144 5.2096h17.9456c3.2256 0 6.08-2.112 7.0144-5.2096l3.7888-12.5184c8.7424-2.816 16.64-7.36 23.3344-13.3504l12.5952 2.944c3.1488 0.7296 6.4-0.6784 8.0128-3.4816l8.9728-15.5392a7.3344 7.3344 0 0 0-0.9984-8.6784l-8.5376-9.088c1.0368-4.608 1.6896-9.344 1.6896-14.2464zM247.808 556.5056l26.4192-119.552c1.1264-5.12 5.6704-8.768 10.9184-8.768h42.5728c6.2848 0 11.0848 5.632 10.0864 11.8528l-12.288 76.096a11.1488 11.1488 0 0 0 11.008 12.928h319.6928c6.8608 0 12.096-6.144 11.008-12.928l-12.288-76.096a10.2144 10.2144 0 0 1 10.0992-11.8528h42.56c5.248 0 9.792 3.648 10.9184 8.7808l26.4192 119.552a12.992 12.992 0 0 1-12.6848 15.7824H260.5056c-8.3072 0-14.4768-7.68-12.6848-15.7952zM622.3616 500.2496H370.3808a11.1488 11.1488 0 0 1-11.008-12.928l44.416-275.3024h185.1648l44.416 275.3024a11.1488 11.1488 0 0 1-11.008 12.928z m-111.5776-259.4048h-28.8256v172.928h28.8256v-172.928zM590.0416 168.7808v43.2384H402.7008v-43.2384h-51.072v-43.2256h302.6432v43.2256z"  horiz-adv-x="1024" />

    
    <glyph glyph-name="jiuye_chaxun-03" unicode="&#59098;" d="M1024 384c0-431.232-80.768-512-512-512S0-47.232 0 384 80.768 896 512 896s512-80.768 512-512zM653.7216 632.32h-317.056a57.6512 57.6512 0 0 1-57.6384-57.6512V171.136a57.6384 57.6384 0 0 1 57.6512-57.6512h273.152a114.9056 114.9056 0 0 0-39.2064 86.4768 115.2896 115.2896 0 0 0 115.2896 115.2896 115.328 115.328 0 0 0 25.4592-2.9184V574.6688a57.6512 57.6512 0 0 1-57.6512 57.6384zM495.1936 502.592a43.2384 43.2384 0 0 0 43.2384-43.2256 43.0464 43.0464 0 0 0-21.6192-37.248v-27.6096a21.6192 21.6192 0 0 0-43.2256 0v27.6096a43.0464 43.0464 0 0 0-21.632 37.248 43.2384 43.2384 0 0 0 43.2384 43.2256z m36.032-288.2304H401.536a21.6192 21.6192 0 0 0 0 43.2384h129.7024a21.6192 21.6192 0 0 0 0-43.2384z m57.6512 86.464H401.5232a21.6192 21.6192 0 0 0 0 43.2384h187.3536a21.6192 21.6192 0 0 0 0-43.2384zM683.9424 203.8144m-36.032 0a36.032 36.032 0 1 1 72.064 0 36.032 36.032 0 1 1-72.064 0ZM685.9136 315.264a115.2896 115.2896 0 1 1 0-230.5792 115.2896 115.2896 0 0 1 0 230.5792z m60.8768-181.504a14.3616 14.3616 0 0 0-20.3776 0l-12.7616 12.7616c-8.9344-4.672-18.944-7.552-29.7088-7.552a64.9216 64.9216 0 0 0-64.8576 64.8448 64.9216 64.9216 0 0 0 64.8576 64.8576 64.9216 64.9216 0 0 0 64.8448-64.8576 64.2304 64.2304 0 0 0-13.056-38.6176l11.0592-11.0592c5.632-5.632 5.632-14.7456 0-20.3776zM653.7216 632.32h-317.056a57.6512 57.6512 0 0 1-57.6384-57.6512v-60.6208a450.9696 450.9696 0 0 1 158.8864-51.072c1.8944 30.1184 26.6752 54.0416 57.28 54.0416 30.6048 0 55.3984-23.936 57.2928-54.0544a450.9696 450.9696 0 0 1 158.8864 51.0848v60.6208a57.6512 57.6512 0 0 1-57.6512 57.6384zM538.432 459.3792a43.2384 43.2384 0 0 1-86.464 0c0-15.9744 8.7424-29.76 21.6192-37.248v-27.6224a21.6192 21.6192 0 0 1 43.2256 0V422.144a43.0464 43.0464 0 0 1 21.632 37.248z"  horiz-adv-x="1024" />

    
    <glyph glyph-name="jiuye_shezhi-09" unicode="&#59099;" d="M1024 384c0-431.232-80.768-512-512-512S0-47.232 0 384 80.768 896 512 896s512-80.768 512-512zM532.4928 446.5792m-108.0832 0a108.0832 108.0832 0 1 1 216.1664 0 108.0832 108.0832 0 1 1-216.1664 0ZM528.64 481.664l-178.304 78.6944a9.536 9.536 0 0 0 0 17.4464l178.304 78.6816a9.536 9.536 0 0 0 7.7056 0l178.304-78.6816a9.536 9.536 0 0 0 0-17.4464l-178.304-78.6816a9.536 9.536 0 0 0-7.6928 0zM647.7824 453.7856a615.2832 615.2832 0 0 0-230.5792 0v86.4768h230.5792v-86.4768zM458.2784 348.8896l71.68-63.6544a1.9072 1.9072 0 0 0-0.7168-3.2384l-55.1168-16.7808a1.9072 1.9072 0 0 0-2.4192 1.4336l-16.5504 80.4224a1.9072 1.9072 0 0 0 3.1232 1.8176zM606.72 348.8896l-71.68-63.6544a1.9072 1.9072 0 0 1 0.704-3.2384l55.1296-16.7808a1.9072 1.9072 0 0 1 2.4192 1.4336l16.5504 80.4224a1.9072 1.9072 0 0 1-3.1232 1.8176zM754.8416 208.3968m-36.032 0a36.032 36.032 0 1 1 72.064 0 36.032 36.032 0 1 1-72.064 0ZM754.8416 324.096a115.2896 115.2896 0 1 1 0-230.5792 115.2896 115.2896 0 0 1 0 230.5664z m64.8448-115.712c0-4.672-0.5504-9.216-1.4976-13.632l8.3456-8.8832c2.2144-2.368 2.6112-5.888 0.9984-8.6912l-8.96-15.5264a7.3344 7.3344 0 0 0-8.0256-3.4816l-11.8272 2.7648a65.4848 65.4848 0 0 0-24.3712-14.0416l-3.52-11.648a7.3344 7.3344 0 0 0-7.0144-5.2096H745.856a7.3344 7.3344 0 0 0-7.0144 5.2096l-3.52 11.648a65.472 65.472 0 0 0-24.3712 14.0416l-11.8272-2.7648a7.3344 7.3344 0 0 0-8.0256 3.4816l-8.96 15.5264a7.3344 7.3344 0 0 0 0.9984 8.6912l8.3456 8.8832a64.6912 64.6912 0 0 0-1.5104 13.6448c0 4.9024 0.6528 9.6384 1.6896 14.2336l-8.5248 9.088a7.3344 7.3344 0 0 0-0.9984 8.6912l8.96 15.5392a7.3344 7.3344 0 0 0 8.0256 3.4688l12.5952-2.944a64.5376 64.5376 0 0 0 23.3344 13.3632l3.7888 12.5184a7.3344 7.3344 0 0 0 7.0144 5.1968h17.9456c3.2256 0 6.08-2.112 7.0144-5.1968l3.7888-12.5184c8.7424-2.8288 16.64-7.36 23.3344-13.3632l12.5952 2.944c3.1488 0.7296 6.4-0.6784 8.0256-3.4688l8.96-15.5392a7.3344 7.3344 0 0 0-0.9984-8.6784l-8.5376-9.1008c1.0496-4.5952 1.6896-9.344 1.6896-14.2336zM639.552 208.7936a115.3024 115.3024 0 0 0 69.7856 105.9328c-4.3904 4.864-8.832 9.664-13.568 14.1696-5.4656 5.2224-14.144 5.12-19.8016 0.0896l-130.4576-115.84a19.6096 19.6096 0 0 0-26.0352 0l-130.4576 115.84c-5.6576 5.0304-14.336 5.12-19.8016-0.0896-45.8368-43.7376-77.0688-105.4336-84.352-175.1936-1.7536-16.8192 10.752-31.3728 26.1632-31.3728h367.744a114.9056 114.9056 0 0 0-39.2192 86.464z"  horiz-adv-x="1024" />

    
    <glyph glyph-name="jiuye_shezhi-15" unicode="&#59100;" d="M1024 384c0-431.232-80.768-512-512-512S0-47.232 0 384 80.768 896 512 896s512-80.768 512-512zM648 601.3952h-317.056a43.2384 43.2384 0 0 1-43.2384-43.2256v-374.6944a43.2384 43.2384 0 0 1 43.2384-43.2384h277.504a128.9344 128.9344 0 0 0-17.4848 64.8576c0 61.4912 42.8416 112.8576 100.2624 126.208V558.1696a43.2384 43.2384 0 0 1-43.2256 43.2256z m-108.096-396.288H363.136a21.6192 21.6192 0 0 0 0 43.2256h176.768a21.6192 21.6192 0 0 0 0-43.2384z m-126.208 86.4512h-61.1328v61.1328l163.0464 163.0592 61.1456-61.1456L413.696 291.5584z m183.424 183.424l-10.176-10.1888-61.1456 61.1456 10.1888 10.1888a43.2384 43.2384 0 1 0 61.1456-61.1456zM691.2256 221.0944m-36.032 0a36.032 36.032 0 1 1 72.064 0 36.032 36.032 0 1 1-72.064 0ZM691.2256 336.7808a115.2896 115.2896 0 1 1 0-230.5792 115.2896 115.2896 0 0 1 0 230.5792z m64.8576-115.6864c0-4.6848-0.5504-9.2288-1.4976-13.6448l8.3328-8.896c2.2144-2.3424 2.624-5.888 1.0112-8.6784l-8.9728-15.5264a7.3344 7.3344 0 0 0-8.0256-3.4816l-11.8272 2.7648a65.4848 65.4848 0 0 0-24.3584-14.0416l-3.5328-11.648a7.3344 7.3344 0 0 0-7.0144-5.2096h-17.9456a7.3344 7.3344 0 0 0-7.0144 5.2096l-3.52 11.648a65.4848 65.4848 0 0 0-24.3712 14.0416l-11.8272-2.7648a7.3344 7.3344 0 0 0-8.0128 3.4816l-8.9728 15.5264a7.3344 7.3344 0 0 0 0.9984 8.6784l8.3456 8.896a64.6912 64.6912 0 0 0-1.4976 13.6448c0 4.9024 0.64 9.6384 1.6896 14.2336l-8.5376 9.088a7.3344 7.3344 0 0 0-0.9984 8.704l8.96 15.5264a7.3216 7.3216 0 0 0 8.0256 3.4688l12.5952-2.944a64.5376 64.5376 0 0 0 23.3344 13.3632l3.7888 12.5184a7.3344 7.3344 0 0 0 7.0144 5.1968h17.9456c3.2256 0 6.08-2.112 7.0144-5.1968l3.7888-12.5184c8.7424-2.8288 16.6528-7.36 23.3344-13.3632l12.5952 2.944c3.1488 0.7424 6.4-0.6656 8.0256-3.4688l8.96-15.5392a7.3344 7.3344 0 0 0-0.9984-8.6784l-8.5248-9.088c1.024-4.608 1.6896-9.344 1.6896-14.2464z"  horiz-adv-x="1024" />

    
    <glyph glyph-name="jiuye_tongji-30" unicode="&#59101;" d="M1024 384c0-431.232-80.768-512-512-512S0-47.232 0 384 80.768 896 512 896s512-80.768 512-512zM492.3904 556.1344m-108.0832 0a108.0832 108.0832 0 1 1 216.1664 0 108.0832 108.0832 0 1 1-216.1664 0ZM387.8272 433.6384h-76.544c-23.3472 0-42.2784-25.8048-42.2784-57.6384v-172.928c0-31.8464 18.9312-57.6512 42.2784-57.6512h167.104l-90.56 288.2176zM433.1008 390.4l52.0832-165.7216 52.0704 165.7344-52.0704 43.2256zM686.9376 347.1744a115.2896 115.2896 0 1 1 0-230.5792 115.2896 115.2896 0 0 1 0 230.5792z m73.088-155.9296a14.4 14.4 0 0 0-20.1344 3.1488l-30.0672 41.2288-40.512-42.6624a14.3744 14.3744 0 0 0-22.656 2.2528l-34.7264 55.2064a14.4128 14.4128 0 1 0 24.3968 15.3344l24.8576-39.488 39.6544 41.728c2.944 3.1104 7.1296 4.6336 11.392 4.48 4.2496-0.2944 8.192-2.432 10.7008-5.9008l40.2432-55.1936a14.4128 14.4128 0 0 0-3.1488-20.1344zM571.648 231.8848a115.2896 115.2896 0 0 0 115.2896 115.2896c4.8896 0 9.6768-0.3968 14.4128-0.9984v29.824c0 31.8336-18.9312 57.6384-42.2784 57.6384h-76.544l-90.56-288.2176h118.8864a114.9056 114.9056 0 0 0-39.2064 86.464z"  horiz-adv-x="1024" />

    
    <glyph glyph-name="jiuye_shezhi-16" unicode="&#59102;" d="M1024 384c0-431.232-80.768-512-512-512S0-47.232 0 384 80.768 896 512 896s512-80.768 512-512zM545.8304 160.768h-186.24a7.6544 7.6544 0 0 0-6.2848 12.0448l41.7536 60.032h115.2896l41.7664-60.032a7.6544 7.6544 0 0 0-6.2848-12.032zM715.008 246.8352m-36.032 0a36.032 36.032 0 1 1 72.064 0 36.032 36.032 0 1 1-72.064 0ZM715.008 362.5344a115.2896 115.2896 0 1 1 0-230.5792 115.2896 115.2896 0 0 1 0 230.5792z m64.8448-115.6992c0-4.6848-0.5504-9.216-1.4976-13.632l8.3456-8.896c2.2144-2.3552 2.6112-5.888 0.9984-8.6784l-8.96-15.5392a7.3344 7.3344 0 0 0-8.0256-3.4688l-11.8272 2.7648a65.4848 65.4848 0 0 0-24.3712-14.0544l-3.52-11.648a7.3344 7.3344 0 0 0-7.0144-5.2096h-17.9456a7.3344 7.3344 0 0 0-7.0144 5.2096l-3.5328 11.648a65.4848 65.4848 0 0 0-24.3584 14.0544l-11.8272-2.7648a7.3344 7.3344 0 0 0-8.0256 3.4688l-8.96 15.5392a7.3344 7.3344 0 0 0 0.9984 8.6784l8.3328 8.896a64.6912 64.6912 0 0 0-1.4976 13.632c0 4.9024 0.6528 9.6512 1.6896 14.2336l-8.5248 9.1008a7.3344 7.3344 0 0 0-1.0112 8.6784L651.2768 294.4a7.3344 7.3344 0 0 0 8.0256 3.4816l12.5824-2.944a64.5376 64.5376 0 0 0 23.3472 13.3504l3.7888 12.5184a7.3344 7.3344 0 0 0 7.0144 5.2096h17.9456c3.2256 0 6.08-2.112 7.0144-5.2096l3.7888-12.5184c8.7424-2.816 16.64-7.36 23.3344-13.3504l12.5952 2.944c3.1488 0.7296 6.4-0.6784 8.0128-3.4816l8.9728-15.5392a7.3344 7.3344 0 0 0-0.9984-8.6784l-8.5376-9.088c1.0368-4.608 1.6896-9.344 1.6896-14.2464zM635.7376 578.7008H294.1824a57.8176 57.8176 0 0 1-57.6512-57.6512v-201.7536a57.8176 57.8176 0 0 1 57.6512-57.6384h291.968a128.64 128.64 0 0 0 6.6944 28.8128 129.9968 129.9968 0 0 0 71.7184 76.288c9.1136 3.8528 18.7904 6.5536 28.8256 8.2432v146.048a57.8176 57.8176 0 0 1-57.6512 57.6512zM338.88 369.7408c0 11.9424 9.6768 21.632 21.6192 21.632h112.8832a21.6192 21.6192 0 0 0 0-43.2512h-112.896a21.6192 21.6192 0 0 0-21.6064 21.632z m246.4256 64.8576H360.4992a21.6192 21.6192 0 0 0 0 43.2256h224.8064a21.6192 21.6192 0 0 0 0-43.2256z"  horiz-adv-x="1024" />

    
    <glyph glyph-name="jiuye_shezhi-12" unicode="&#59103;" d="M1024 384c0-431.232-80.768-512-512-512S0-47.232 0 384 80.768 896 512 896s512-80.768 512-512zM375.4752 554.6624L231.424 489.8176l-0.0384-367.488h144.128V553.856c0 0.2688-0.0512 0.5248-0.0512 0.7936zM332.288 280.8576h-57.6512v57.6384h57.6512v-57.6384z m0 100.864h-57.6512v57.6512h57.6512v-57.6384zM769.9072 208.3968m-36.032 0a36.032 36.032 0 1 1 72.064 0 36.032 36.032 0 1 1-72.064 0ZM769.92 324.096a115.2896 115.2896 0 1 1 0-230.5792 115.2896 115.2896 0 0 1 0 230.5664z m64.8448-115.712c0-4.672-0.5504-9.216-1.4976-13.632l8.3328-8.8832c2.2144-2.368 2.624-5.888 1.0112-8.6912l-8.9728-15.5264a7.3344 7.3344 0 0 0-8.0256-3.4816l-11.8272 2.7648a65.4848 65.4848 0 0 0-24.3584-14.0416l-3.5328-11.648a7.3344 7.3344 0 0 0-7.0144-5.2096h-17.9456a7.3344 7.3344 0 0 0-7.0144 5.2096l-3.52 11.648a65.472 65.472 0 0 0-24.3712 14.0416l-11.8272-2.7648a7.3344 7.3344 0 0 0-8.0128 3.4816l-8.9728 15.5264a7.3344 7.3344 0 0 0 0.9984 8.6912l8.3456 8.8832a64.6912 64.6912 0 0 0-1.4976 13.6448c0 4.9024 0.64 9.6384 1.6896 14.2336l-8.5376 9.088a7.3344 7.3344 0 0 0-0.9984 8.6912l8.96 15.5392a7.3344 7.3344 0 0 0 8.0256 3.4688l12.5952-2.944a64.5376 64.5376 0 0 0 23.3344 13.3632l3.7888 12.5184a7.3344 7.3344 0 0 0 7.0144 5.1968h17.9456c3.2256 0 6.08-2.112 7.0144-5.1968l3.7888-12.5184c8.7424-2.8288 16.6528-7.36 23.3472-13.3632l12.5824 2.944c3.1488 0.7296 6.4-0.6784 8.0256-3.4688l8.96-15.5392a7.3344 7.3344 0 0 0-0.9984-8.6784l-8.5248-9.1008c1.024-4.5952 1.6896-9.344 1.6896-14.2336zM638.2976 208.7936c0 38.1056 18.56 71.808 47.0656 92.8V583.4752a28.9024 28.9024 0 0 1-28.8256 28.8256H425.9584a28.8256 28.8256 0 0 1-28.8256-28.8256v-461.1584H677.504a114.9056 114.9056 0 0 0-39.2064 86.464z m-10.5856 72.064H454.784v57.6384h172.928v-57.6384z m0 100.864H454.784v57.6512h172.928v-57.6384z m0 100.8896H454.784v57.6384h172.928v-57.6384z"  horiz-adv-x="1024" />

    
    <glyph glyph-name="jiuye_shezhi-18" unicode="&#59104;" d="M1024 384c0-431.232-80.768-512-512-512S0-47.232 0 384 80.768 896 512 896s512-80.768 512-512zM351.744 156.5312H222.0672V452.8384a12.8 12.8 0 0 0 12.8 12.8h116.9024v-309.12zM767.8208 342.7328a115.2896 115.2896 0 1 1 0-230.5792 115.2896 115.2896 0 0 1 0 230.5792z m64.8448-115.6992c0-4.6848-0.5504-9.2288-1.4976-13.632l8.3456-8.896c2.2144-2.3552 2.624-5.888 0.9984-8.6784l-8.96-15.5392a7.3344 7.3344 0 0 0-8.0256-3.4688l-11.8272 2.7648a65.5104 65.5104 0 0 0-24.3712-14.0544l-3.52-11.648a7.3344 7.3344 0 0 0-7.0144-5.2096h-17.9456a7.3344 7.3344 0 0 0-7.0144 5.2096l-3.52 11.648a65.4592 65.4592 0 0 0-24.3712 14.0544l-11.8272-2.7648a7.3344 7.3344 0 0 0-8.0256 3.4688l-8.96 15.5392a7.3344 7.3344 0 0 0 0.9984 8.6784l8.3456 8.896a64.7168 64.7168 0 0 0-1.4976 13.632c0 4.9024 0.64 9.6384 1.6768 14.2464l-8.5248 9.088a7.3344 7.3344 0 0 0-0.9984 8.6912l8.96 15.5264a7.3344 7.3344 0 0 0 8.0256 3.4816l12.5952-2.944a64.4608 64.4608 0 0 0 23.3344 13.3504l3.7888 12.5184a7.3344 7.3344 0 0 0 7.0144 5.2096h17.9456c3.2256 0 6.08-2.112 7.0144-5.2096l3.7888-12.5184c8.7424-2.816 16.64-7.3472 23.3344-13.3504l12.5952 2.944c3.1488 0.7296 6.4-0.6784 8.0256-3.4816l8.96-15.5264a7.3344 7.3344 0 0 0-0.9984-8.6912l-8.5248-9.088c1.024-4.608 1.6768-9.344 1.6768-14.2464zM767.8208 227.0336m-36.032 0a36.032 36.032 0 1 1 72.064 0 36.032 36.032 0 1 1-72.064 0ZM769.6768 354.5216v96.704c0 7.9488-6.4512 14.4128-14.4 14.4128h-115.3024v-240.8192c0 71.6288 58.0736 129.7024 129.7024 129.7024zM639.9744 224.8192v-68.288h19.584a128.896 128.896 0 0 0-19.584 68.288zM633.2928 556.352l-133.12 84.4032a14.4128 14.4128 0 0 1-15.7056-0.1792l-126.2976-84.1984c-4.0064-2.6752-6.4128-7.168-6.4128-11.9936V156.544h288.2176V544.1792c0 4.928-2.5216 9.5232-6.6816 12.16z m-132.8256-92.1344a44.0064 44.0064 0 1 0 0-88.0128 44.0064 44.0064 0 0 0 0 88.0128z m31.488-84.5056l-6.7456-32.7552a0.768 0.768 0 0 0-0.9728-0.576l-22.4512 6.8352a0.768 0.768 0 0 0-0.2816 1.3184l29.184 25.9072c0.5504 0.4992 1.408 0 1.2672-0.7296z m-32.8064-26.496l-22.4512-6.8352a0.768 0.768 0 0 0-0.9856 0.576l-6.7328 32.7552c-0.1536 0.7296 0.7168 1.2288 1.28 0.7296l29.184-25.9072a0.768 0.768 0 0 0-0.2944-1.3184z m91.4816-65.0112H410.304c-6.272 0-11.3664 5.9264-10.6496 12.7744 2.9568 28.416 15.68 53.5168 34.3424 71.3216a5.9776 5.9776 0 0 0 8.064 0.0384l53.1072-47.1552c3.0208-2.688 7.5776-2.688 10.5984 0l53.12 47.1552a5.9776 5.9776 0 0 0 8.064-0.0384c18.6496-17.792 31.36-42.9184 34.3296-71.3216 0.7168-6.848-4.3776-12.7744-10.6496-12.7744z"  horiz-adv-x="1024" />

    
    <glyph glyph-name="jiuye_tongji-34" unicode="&#59105;" d="M1024 384c0-431.232-80.768-512-512-512S0-47.232 0 384 80.768 896 512 896s512-80.768 512-512zM515.0208 627.1872H284.4416a28.8256 28.8256 0 0 1-28.8256-28.8256V137.216h288.2304V598.3616A28.9024 28.9024 0 0 1 515.0208 627.2z m-28.8128-351.8848H313.2672v57.6512h172.928v-57.6512z m0 100.8768H313.2672v57.6512h172.928v-57.6512z m0 100.8768H313.2672v57.6512h172.928v-57.6512zM742.2208 359.6032a115.2896 115.2896 0 1 1 0-230.5792 115.2896 115.2896 0 0 1 0 230.5792z m72.192-155.5584a14.4 14.4 0 0 0-20.1344 3.1488l-30.0544 41.2288-40.512-42.6624a14.3744 14.3744 0 0 0-22.656 2.2528l-34.7264 55.2064a14.4128 14.4128 0 1 0 24.3968 15.3344l24.8576-39.488 39.6544 41.728c2.944 3.1104 7.1296 4.6336 11.392 4.48 4.2496-0.2944 8.192-2.432 10.7008-5.9008l40.2432-55.1936a14.4128 14.4128 0 0 0-3.1488-20.1344zM626.944 244.3136c0 10.752 1.5744 21.12 4.3264 30.9888h-22.5664v57.6512h57.6384v-1.984a114.944 114.944 0 0 0 43.2128 23.872V504.6912L565.504 569.536c0-0.256-0.0384-0.512-0.0384-0.7936v-431.5392h134.2848c-42.624 16.9216-72.8192 58.4448-72.8192 107.1104z m-18.24 189.5168h57.6384v-57.6512h-57.6384v57.6512z"  horiz-adv-x="1024" />

    
    <glyph glyph-name="jiuye_zhinan-25" unicode="&#59106;" d="M1022.747135 383.373567c0-430.704387-80.66918-511.373567-511.373568-511.373567s-511.373567 80.66918-511.373567 511.373567 80.66918 511.373567 511.373567 511.373568 511.373567-80.66918 511.373568-511.373568zM1022.747135 384.626433c0-430.704387-80.66918-511.373567-511.373568-511.373568S0-46.077955 0 384.626433 80.66918 896 511.373567 896s511.373567-80.66918 511.373568-511.373567zM476.254988 440.289445m-107.95096 0a107.95096 107.95096 0 1 1 215.90192 0 107.95096 107.95096 0 1 1-215.90192 0ZM472.406902 475.344103l-178.085845 78.585333a9.524333 9.524333 0 0 0 0 17.41227l178.085845 78.598118a9.524333 9.524333 0 0 0 7.683387 0l178.085845-78.598118a9.524333 9.524333 0 0 0 0-17.41227l-178.085845-78.585333a9.524333 9.524333 0 0 0-7.683387 0zM591.403531 447.487028a614.5304 614.5304 0 0 0-230.309871 0v86.370996H591.403531v-86.370996zM402.118605 342.719369l71.592299-63.576519a1.904867 1.904867 0 0 0-0.703139-3.234438l-55.062148-16.773053a1.904867 1.904867 0 0 0-2.41624 1.444631L398.999226 340.903993a1.904867 1.904867 0 0 0 3.119379 1.815376zM550.365802 342.719369l-71.579515-63.576519a1.904867 1.904867 0 0 1 0.703138-3.234438l55.062149-16.773053a1.904867 1.904867 0 0 1 2.41624 1.444631l16.530151 80.324003a1.904867 1.904867 0 0 1-3.119379 1.815376zM673.773028 197.872806l38.928313 17.821369 17.821369 38.928312-38.928313-17.834153zM702.154261 341.389797a115.148543 115.148543 0 1 1 0-230.297086 115.148543 115.148543 0 0 1 0 230.297086z m70.659043-63.55095l-36.166896-79.007216c-1.431846-3.144947-3.963145-5.663462-7.095308-7.095308l-78.994432-36.154111a14.395166 14.395166 0 0 0-19.074234 19.074234l36.17968 78.981647c1.431846 3.157732 3.950361 5.676247 7.082524 7.108093l78.981647 36.166895a14.382382 14.382382 0 1 0 19.087019-19.074234zM587.005718 226.241254a114.982347 114.982347 0 0 0 52.364653 96.45784l-0.038353 0.051137c-5.471697 5.21601-14.126695 5.113736-19.777372 0.08949l-130.31077-115.698269a19.572823 19.572823 0 0 0-25.990561 0l-130.297985 115.698269c-5.663462 5.024245-14.31846 5.113736-19.790157-0.08949-45.767934-43.684087-76.974506-105.304602-84.248796-174.97925-1.73867-16.798622 10.738845-31.334415 26.13119-31.334416h412.422782c-46.650054 14.714774-80.464631 58.296587-80.464631 109.804689z"  horiz-adv-x="1024" />

    
    <glyph glyph-name="jiuye_shezhi-11" unicode="&#59107;" d="M1024 384c0-431.232-80.768-512-512-512S0-47.232 0 384 80.768 896 512 896s512-80.768 512-512zM339.4048 163.072H209.7024V459.392a12.8 12.8 0 0 0 12.8 12.8h116.9024v-309.12zM742.912 233.9968m-36.032 0a36.032 36.032 0 1 1 72.064 0 36.032 36.032 0 1 1-72.064 0ZM742.912 349.696a115.2896 115.2896 0 1 1 0-230.5792 115.2896 115.2896 0 0 1 0 230.5664z m64.8576-115.712c0-4.672-0.5504-9.216-1.4976-13.632l8.3328-8.8832c2.2144-2.368 2.624-5.888 1.0112-8.6912l-8.9728-15.5264a7.3344 7.3344 0 0 0-8.0256-3.4816l-11.8272 2.7648a65.4848 65.4848 0 0 0-24.3584-14.0416l-3.5328-11.648a7.3344 7.3344 0 0 0-7.0144-5.2096H733.952a7.3344 7.3344 0 0 0-7.0272 5.2096l-3.52 11.648a65.472 65.472 0 0 0-24.3712 14.0416l-11.8272-2.7648a7.3344 7.3344 0 0 0-8.0128 3.4816l-8.9728 15.5264a7.3344 7.3344 0 0 0 0.9984 8.6912l8.3456 8.8832a64.6912 64.6912 0 0 0-1.4976 13.6448c0 4.9024 0.64 9.6384 1.6896 14.2336l-8.5376 9.088a7.3344 7.3344 0 0 0-0.9984 8.6912l8.96 15.5392a7.3344 7.3344 0 0 0 8.0256 3.4688l12.5952-2.944a64.5376 64.5376 0 0 0 23.3344 13.3632l3.7888 12.5184a7.3344 7.3344 0 0 0 7.0272 5.1968h17.9328c3.2384 0 6.08-2.112 7.0144-5.1968l3.7888-12.5184c8.7552-2.8288 16.6528-7.36 23.3472-13.3632l12.5824 2.944c3.1488 0.7296 6.4-0.6784 8.0256-3.4688l8.96-15.5392a7.3344 7.3344 0 0 0-0.9984-8.6784l-8.5248-9.1008c1.024-4.5952 1.6896-9.344 1.6896-14.2336zM620.928 562.8928l-133.1072 84.416a14.4128 14.4128 0 0 1-15.7056-0.1792l-126.2976-84.1984c-4.0064-2.688-6.4128-7.168-6.4128-11.9936V163.072h288.2176V550.7328c0 4.928-2.5216 9.5232-6.6944 12.16z m-163.0208-54.6816h51.2128c4.5056 0 7.808-4.224 6.7328-8.6016l-9.3952-37.8368a6.9248 6.9248 0 0 0-6.7328-5.2608h-32.4224a6.9248 6.9248 0 0 0-6.7328 5.248l-9.3952 37.8496a6.9248 6.9248 0 0 0 6.7328 8.6016z m82.3424-220.032l-49.8816-41.4208a10.7264 10.7264 0 0 0-13.696 0l-49.8944 41.4208a10.7264 10.7264 0 0 0-3.3792 11.4688l41.5104 132.1088a10.7264 10.7264 0 0 0 10.24 7.5136h16.7424c4.6848 0 8.832-3.0336 10.2272-7.5136l41.5104-132.1088a10.7264 10.7264 0 0 0-3.3792-11.4688zM742.912 349.696c4.9024 0 9.6896-0.4096 14.4128-1.0112v109.0816c0 7.9616-6.4512 14.4128-14.4128 14.4128h-115.2896v-237.7856a115.2896 115.2896 0 0 0 115.2896 115.2896zM627.6224 234.3936v-71.3216h24.832a114.688 114.688 0 0 0-24.832 71.3216z"  horiz-adv-x="1024" />

    
    <glyph glyph-name="jiuye_tongji" unicode="&#59108;" d="M1024 384c0-431.232-80.768-512-512-512S0-47.232 0 384 80.768 896 512 896s512-80.768 512-512zM484.6464 483.584m-108.0832 0a108.0832 108.0832 0 1 1 216.1664 0 108.0832 108.0832 0 1 1-216.1664 0ZM480.8064 518.6816l-178.304 78.6816a9.536 9.536 0 0 0 0 17.4464l178.304 78.6816a9.536 9.536 0 0 0 7.68 0l178.304-78.6816a9.536 9.536 0 0 0 0-17.4464l-178.304-78.6816a9.536 9.536 0 0 0-7.68 0zM599.936 490.7904a615.2832 615.2832 0 0 0-230.5792 0V577.28H599.936v-86.4768zM410.432 385.8944l71.68-63.6544a1.9072 1.9072 0 0 0-0.7168-3.2384l-55.1168-16.7808a1.9072 1.9072 0 0 0-2.432 1.4336l-16.5504 80.4352a1.9072 1.9072 0 0 0 3.136 1.792zM558.8736 385.8944l-71.68-63.6544a1.9072 1.9072 0 0 1 0.704-3.2384l55.1296-16.7808a1.9072 1.9072 0 0 1 2.4192 1.4336l16.5504 80.4352a1.9072 1.9072 0 0 1-3.1232 1.792zM710.8224 384.576a115.2896 115.2896 0 1 1 0-230.592 115.2896 115.2896 0 0 1 0 230.592z m72.192-154.9312a14.4 14.4 0 0 0-20.1344 3.1488l-30.0544 41.2288-40.512-42.6624a14.3744 14.3744 0 0 0-22.656 2.2528l-34.7264 55.2064a14.4128 14.4128 0 1 0 24.384 15.3344l24.8704-39.488 39.6544 41.728c2.944 3.1104 7.0912 4.6336 11.3792 4.48 4.2624-0.2944 8.192-2.432 10.7136-5.9008l40.2432-55.1936a14.4128 14.4128 0 0 0-3.1616-20.1344zM595.5328 269.2736a115.1232 115.1232 0 0 0 52.4416 96.576l-0.0384 0.0512c-5.4784 5.2224-14.1568 5.12-19.8144 0.0896l-130.4576-115.84a19.6096 19.6096 0 0 0-26.0352 0l-130.4576 115.84c-5.6576 5.0304-14.336 5.1328-19.8016-0.0896-45.8368-43.7376-77.0816-105.4336-84.352-175.1936-1.7536-16.8064 10.752-31.36 26.1632-31.36H676.096c-46.6944 14.72-80.5632 58.368-80.5632 109.9264z"  horiz-adv-x="1024" />

    
    <glyph glyph-name="jiuye_tongji-35" unicode="&#59109;" d="M1024 384c0-431.232-80.768-512-512-512S0-47.232 0 384 80.768 896 512 896s512-80.768 512-512zM518.6304 636.5312a28.8256 28.8256 0 1 1-57.6512 0h-35.1104a8.128 8.128 0 0 1-8.128-8.128v-21.824c0-7.3344 5.952-13.2864 13.2864-13.2864h117.5552c7.3344 0 13.2736 5.952 13.2736 13.2864v21.824a8.128 8.128 0 0 1-8.128 8.128h-35.0976z m-28.8256-14.4128a14.4128 14.4128 0 1 0 0 28.8256 14.4128 14.4128 0 0 0 0-28.8256zM417.7408 103.3088v115.2896a28.8256 28.8256 0 0 1-28.8128 28.8256h-115.2896L417.7408 103.296zM680.5248 305.0624a115.2896 115.2896 0 1 1 0-230.5792 115.2896 115.2896 0 0 1 0 230.5792z m72.192-154.5088a14.4 14.4 0 0 0-20.1344 3.1488l-30.0672 41.216-40.512-42.6496a14.4 14.4 0 0 0-22.656 2.2528l-34.7264 55.1808a14.4128 14.4128 0 1 0 24.3968 15.3472l24.8576-39.5008 39.6544 41.7408a14.3616 14.3616 0 0 0 22.0928-1.4336l40.2432-55.168a14.4 14.4 0 0 0-3.1488-20.1344zM604.4416 103.296a114.9056 114.9056 0 0 0-39.2064 86.4768 115.2896 115.2896 0 0 0 115.2896 115.2896c8.7552 0 17.2544-1.0624 25.4464-2.9056V564.4672a57.6384 57.6384 0 0 1-57.6384 57.6512h-50.2912a7.36 7.36 0 0 1-7.36-7.36v-21.4656a28.8256 28.8256 0 0 0-28.8256-28.8256H417.7408a28.8256 28.8256 0 0 0-28.8128 28.8256v21.4656a7.36 7.36 0 0 1-7.36 7.36H331.264a57.6384 57.6384 0 0 1-57.6384-57.6512v-317.056l144.1024-28.8128v-115.2896h186.7008zM396.1216 449.2032h187.3536a21.6192 21.6192 0 0 0 0-43.2384H396.1216a21.6192 21.6192 0 0 0 0 43.2384z m0-129.7024a21.6192 21.6192 0 0 0 0 43.2256h187.3536a21.6192 21.6192 0 0 0 0-43.2256H396.1216z"  horiz-adv-x="1024" />

    
    <glyph glyph-name="xianxingdengpao" unicode="&#58883;" d="M117.76 638.99m-27.97 0a27.97 27.97 0 1 1 55.94 0 27.97 27.97 0 1 1-55.94 0ZM166.72 744.33m-27.97 0a27.97 27.97 0 1 1 55.94 0 27.97 27.97 0 1 1-55.94 0ZM906.24 695.38m-27.97 0a27.97 27.97 0 1 1 55.94 0 27.97 27.97 0 1 1-55.94 0ZM320.28 527.74c23.68 119.24 132.34 166.45 189.09 174.76 16.2 2.38 31.26-8.84 33.65-25.04 2.36-16.19-8.81-31.21-24.97-33.63-5.48-0.86-127.71-21.2-141.75-141.36-1.89-16.27-16.66-27.91-32.93-26-16.27 1.91-27.91 16.66-25.99 32.92 0.74 6.3 1.71 12.43 2.9 18.35zM632.69 48.6H426.28c-37.94 0-68.8 30.86-68.8 68.8V169c0 18.99 15.4 34.4 34.4 34.4s34.4-15.4 34.4-34.4v-51.6h206.41v51.59c0 18.99 15.4 34.4 34.4 34.4s34.4-15.41 34.4-34.4v-51.59c-0.01-37.93-30.86-68.8-68.8-68.8z m-17.21-112.16h-172c-19 0-34.4 15.4-34.4 34.4s15.4 34.41 34.4 34.41h172c19 0 34.4-15.41 34.4-34.41 0-19-15.4-34.4-34.4-34.4z m0 0M667.1 136.35c-13.25 0-25.88 7.7-31.54 20.63-7.61 17.41 0.36 37.69 17.76 45.29C757.29 247.7 821.9 350.43 821.9 470.36c0 161.23-131.17 292.4-292.41 292.4-161.23 0-292.4-131.17-292.4-292.41 0-119.92 64.6-222.65 168.57-268.09 17.41-7.61 25.36-27.88 17.76-45.29-7.63-17.41-27.92-25.38-45.31-17.75-129.42 56.56-209.83 183.45-209.83 331.13 0 199.17 162.04 361.2 361.2 361.2s361.2-162.03 361.2-361.2c0-147.69-80.41-274.58-209.83-331.13a34.37 34.37 0 0 0-13.75-2.87z m0 0"  horiz-adv-x="1024" />

    
    <glyph glyph-name="xianxingfangdajing" unicode="&#58884;" d="M89.43 655.15m-25.61 0a25.61 25.61 0 1 1 51.22 0 25.61 25.61 0 1 1-51.22 0ZM134.25 751.6m-25.61 0a25.61 25.61 0 1 1 51.22 0 25.61 25.61 0 1 1-51.22 0ZM920.18 706.78m-25.61 0a25.61 25.61 0 1 1 51.22 0 25.61 25.61 0 1 1-51.22 0ZM547.94 176.07c-157.47 0-244.85 126.12-269.73 196.11-7.11 19.99 3.34 41.96 23.33 49.07 19.97 7.09 41.88-3.3 49.03-23.22 2.47-6.75 59.15-156.89 215.35-144.41 21.15 1.7 39.65-14.12 41.33-35.27 1.67-21.15-14.12-39.65-35.27-41.33-8.19-0.63-16.21-0.95-24.04-0.95zM517.62 42.1c-207.03 0-375.46 168.43-375.46 375.46 0 207.02 168.43 375.45 375.46 375.45 207.02 0 375.45-168.43 375.45-375.45-0.01-207.03-168.43-375.46-375.45-375.46z m0 685.47c-170.94 0-310.02-139.07-310.02-310.01 0-170.95 139.08-310.02 310.02-310.02 170.94 0 310 139.07 310 310.02 0 170.94-139.07 310.01-310 310.01z m0 0M927.46-25.01c-8.37 0-16.74 3.19-23.14 9.59L744.4 144.51c-12.78 12.77-12.78 33.5 0 46.27 12.78 12.78 33.49 12.78 46.27 0L950.6 30.84c12.78-12.77 12.78-33.5 0-46.27-6.4-6.39-14.77-9.58-23.14-9.58z m0 0"  horiz-adv-x="1024" />

    
    <glyph glyph-name="xianxinggouwudai" unicode="&#58885;" d="M89.85 609.78m-26.03 0a26.03 26.03 0 1 1 52.06 0 26.03 26.03 0 1 1-52.06 0ZM135.4 707.81m-26.03 0a26.03 26.03 0 1 1 52.06 0 26.03 26.03 0 1 1-52.06 0ZM934.15 662.26m-26.03 0a26.03 26.03 0 1 1 52.06 0 26.03 26.03 0 1 1-52.06 0ZM731.78 157.54v5.03h-0.51c-2.42 15.26-15.54 26.96-31.48 26.96H379.96c-15.94 0-29.06-11.71-31.48-26.96h-0.5V147.13c0-17.67 14.32-31.98 31.98-31.98H699.8c17.66 0 31.99 14.32 31.99 31.98v10.41zM843.87-17.2H234.98a64.377 64.377 0 0 0-64.24 58.04l-47.35 465.05c-1.86 18.14 4.1 36.3 16.32 49.85 12.22 13.52 29.69 21.28 47.92 21.28h703.58c18.24 0 35.71-7.77 47.94-21.29 12.22-13.53 18.18-31.7 16.32-49.83l-47.36-465.05c-3.34-33.09-30.97-58.05-64.24-58.05zM187.62 512.43l47.36-465.05h0.02v-0.03l608.87 0.04 47.35 465.04h-703.6z m0 0M694.44 439.88c-17.83 0-32.29 14.46-32.29 32.29V688.31c0 17.81-14.49 32.3-32.29 32.3H449c-17.8 0-32.29-14.49-32.29-32.3v-216.14c0-17.84-14.46-32.29-32.3-32.29-17.83 0-32.29 14.46-32.29 32.29V688.31c0 53.43 43.46 96.89 96.89 96.89h180.85c53.42 0 96.88-43.46 96.88-96.89v-216.14c-0.01-17.83-14.46-32.29-32.3-32.29z m0 0"  horiz-adv-x="1024" />

    
    <glyph glyph-name="xianxingdingwei" unicode="&#58886;" d="M511.07 48.43c-20.3 0-38.98 9.15-51.21 25.11l-202.79 264.3c-3.31 3.79-5.44 7.4-6.8 9.69-36.46 51.11-56.02 111.95-56.02 175.29 0.76 170.31 143.19 308.73 317.5 308.73 174.69 0 316.83-138.49 316.83-308.73-0.74-63.51-20.28-123.85-56.52-175.01-1.7-2.85-3.83-6.37-6.97-9.97l-202.8-264.31c-12.23-15.96-30.91-25.1-51.22-25.1zM308.22 383.91c0.92-0.97 1.8-1.99 2.62-3.04l200.22-260.98L711.3 380.87c0.36 0.46 0.72 0.92 1.12 1.36l2.08 3.43c0.27 0.41 0.55 0.82 0.84 1.24 28.46 39.83 43.81 86.98 44.38 136.34 0 131.85-111.23 239.47-247.97 239.47-136.52 0-248.05-107.68-248.64-240.03 0-48.75 15.11-95.75 43.7-135.78l2.7-4.25v-0.03c-0.08-0.01-0.68 0.66-1.29 1.29z m405.65-0.05c0-0.01 0-0.01-0.01-0.03 0.01 0.02 0.01 0.02 0.01 0.03z m0.05 0.05c0-0.02-0.01-0.03-0.03-0.05 0.01 0.03 0.03 0.03 0.03 0.05z m0 0M136.01 680.73m-28.02 0a28.02 28.02 0 1 1 56.04 0 28.02 28.02 0 1 1-56.04 0ZM185.04 786.25m-28.02 0a28.02 28.02 0 1 1 56.04 0 28.02 28.02 0 1 1-56.04 0ZM848.74 737.22m-28.02 0a28.02 28.02 0 1 1 56.04 0 28.02 28.02 0 1 1-56.04 0ZM546.67 85.39c0-20.41-15.77-36.96-35.25-36.96s-35.26 16.55-35.26 36.96 15.77 36.95 35.26 36.95c19.47 0 35.25-16.54 35.25-36.95zM907.91-63.56h-0.18l-791.83 4.32a34.44 34.44 0 0 0-29.74 17.42c-6.09 10.7-6 23.83 0.24 34.45 0 0.01 67.24 114.44 100.71 171.74 9.56 16.43 30.67 21.95 47.08 12.37 16.42-9.6 21.95-30.68 12.35-47.1-18.8-32.21-48.29-82.48-70.52-120.34l671.79-3.66c-23.09 39.59-54.16 92.84-74.04 126.75-9.61 16.4-4.1 37.49 12.31 47.11 16.38 9.61 37.49 4.12 47.11-12.3 34.93-59.61 104.47-179 104.47-179a34.384 34.384 0 0 0 0.05-34.56 34.427 34.427 0 0 0-29.8-17.2z m0 0M512 370.32c-80.67 0-146.31 65.63-146.31 146.31S431.33 662.95 512 662.95s146.31-65.64 146.31-146.32c0-80.67-65.64-146.31-146.31-146.31z m0 206.57c-33.22 0-60.24-27.03-60.24-60.25S478.79 456.4 512 456.4s60.24 27.03 60.24 60.24-27.03 60.25-60.24 60.25z m0 0"  horiz-adv-x="1024" />

    
    <glyph glyph-name="xianxingshezhi" unicode="&#58887;" d="M701.59 15.64H349.91c-23.02 0-44.43 12.3-55.9 32.12l-176.09 304.3c-11.4 19.69-11.4 44.18 0.02 63.9l176.08 304.28c11.46 19.81 32.89 32.13 55.9 32.13H701.6c22.98 0 44.39-12.3 55.88-32.1l176.11-304.32c11.39-19.71 11.39-44.17 0-63.86L757.48 47.76c-11.49-19.83-32.9-32.12-55.89-32.12zM349.91 688.29L173.38 383.84l176.1-303.99-27.73-16.05 27.73 16.04c0-0.01 0.14-0.15 0.44-0.15H701.6l176.53 304.45-176.1 303.99-352.12 0.16z m0 0M89.85 605.74m-26.03 0a26.03 26.03 0 1 1 52.06 0 26.03 26.03 0 1 1-52.06 0ZM135.4 703.77m-26.03 0a26.03 26.03 0 1 1 52.06 0 26.03 26.03 0 1 1-52.06 0ZM934.15 658.22m-26.03 0a26.03 26.03 0 1 1 52.06 0 26.03 26.03 0 1 1-52.06 0ZM358.95 710.78c0-18.24-14.11-33.04-31.52-33.04-17.42 0-31.52 14.8-31.52 33.04 0 18.25 14.1 33.04 31.52 33.04 17.41-0.01 31.52-14.79 31.52-33.04zM174.03 391.31c0-17.68-14.48-32.02-32.33-32.02-17.86 0-32.33 14.35-32.33 32.02 0 17.69 14.47 32.02 32.33 32.02 17.85 0.01 32.33-14.33 32.33-32.02zM942.12 381.55c0-17.68-14.48-32.02-32.33-32.02-17.86 0-32.33 14.35-32.33 32.02 0 17.69 14.47 32.02 32.33 32.02 17.85 0 32.33-14.33 32.33-32.02zM750.19 715.11c0-18.24-14.11-33.04-31.52-33.04-17.42 0-31.52 14.8-31.52 33.04 0 18.25 14.1 33.04 31.52 33.04 17.41 0 31.52-14.79 31.52-33.04zM364.35 53.02c0-18.24-14.11-33.04-31.52-33.04-17.42 0-31.52 14.8-31.52 33.04 0 18.25 14.1 33.04 31.52 33.04 17.41-0.01 31.52-14.79 31.52-33.04zM746.92 51.54c0-18.33-13.56-33.2-30.3-33.2-16.74 0-30.3 14.87-30.3 33.2 0 18.35 13.56 33.21 30.3 33.21 16.73 0 30.3-14.86 30.3-33.21zM525.74 231.85c-83.89 0-152.15 68.26-152.15 152.14 0 83.9 68.26 152.16 152.15 152.16 83.9 0 152.15-68.26 152.15-152.16 0-83.88-68.25-152.14-152.15-152.14z m0 224.22c-39.74 0-72.07-32.33-72.07-72.08 0-39.74 32.33-72.07 72.07-72.07 39.75 0 72.07 32.33 72.07 72.07 0 39.75-32.33 72.08-72.07 72.08z m0 0"  horiz-adv-x="1024" />

    
    <glyph glyph-name="xianxinghuangguan" unicode="&#58888;" d="M742.63-1.72H242.28c-30.22 0-56.26 20.52-63.32 49.89L77.94 467.12c-5.83 24.19 2.4 49.16 21.47 65.16 19.08 16.01 45.09 19.76 67.92 9.8l131.47-57.4 84.78 101.8c-7.99 14.41-13.01 30.32-14.76 47.03-3.79 36.23 8.41 71.99 33.43 98.09 23.54 24.55 55.36 38.09 89.6 38.12 34.34-0.16 66.12-14.02 89.66-39.04 24.69-26.27 36.53-62.03 32.49-98.14-1.81-16.38-6.81-31.97-14.65-46.12l84.82-101.81 133.67 57.83c22.78 9.88 48.76 6.06 67.8-9.94 19-16 27.2-40.94 21.38-65.1L805.95 48.16c-7.07-29.36-33.11-49.88-63.32-49.88zM141.71 483.37l-1.49-1.23 101-418.97 501.4-0.83L844.73 482.4l-14.18 30.64 12.72-29.4-155.66-67.34c-13.03-5.67-28.23-2.02-37.33 8.89L534.4 564.3c-10.21 12.28-9.84 30.2 0.89 42.02 8.47 9.32 13.67 20.85 15.07 33.32 1.94 17.42-3.71 34.61-15.5 47.16-11.37 12.08-26.7 18.78-43.14 18.86-16.7-0.01-31.72-6.37-43.24-18.4-11.96-12.47-17.77-29.64-15.95-47.11 1.34-12.83 6.43-24.22 15.12-33.83 10.69-11.83 11.06-29.72 0.86-41.98L332.64 425.22c-9.13-10.94-24.36-14.59-37.42-8.86l-153.51 67.01z m0 0M89.85 623.99m-26.03 0a26.03 26.03 0 1 1 52.06 0 26.03 26.03 0 1 1-52.06 0ZM135.4 722.02m-26.03 0a26.03 26.03 0 1 1 52.06 0 26.03 26.03 0 1 1-52.06 0ZM934.15 617.91m-26.03 0a26.03 26.03 0 1 1 52.06 0 26.03 26.03 0 1 1-52.06 0ZM263.79 354.65c-0.01 0-0.02-0.01-0.03 0l-4.8-1.37 0.14-0.5c-14.01-6.52-21.66-22.34-17.27-37.68l53.93-188.64c4.38-15.33 19.23-24.73 34.58-22.86l0.13-0.48 4.83 1.38 8.59 2.45 1.43 0.41c16.98 4.85 26.82 22.55 21.96 39.53l-53.92 188.65c-4.86 16.98-22.56 26.82-39.55 21.96l-1.43-0.41-8.59-2.44zM254.87 36.63c0-18.35-14.2-33.25-31.72-33.25-17.53 0-31.72 14.9-31.72 33.25 0 18.37 14.19 33.25 31.72 33.25 17.52 0 31.72-14.88 31.72-33.25zM794.97 38.04c0-18.35-14.2-33.25-31.72-33.25-17.53 0-31.72 14.9-31.72 33.25 0 18.37 14.19 33.25 31.72 33.25 17.52-0.01 31.72-14.89 31.72-33.25z"  horiz-adv-x="1024" />

    
    <glyph glyph-name="xianxingxiangji" unicode="&#58889;" d="M88.22 555.31m-24.4 0a24.4 24.4 0 1 1 48.8 0 24.4 24.4 0 1 1-48.8 0ZM130.92 647.21m-24.4 0a24.4 24.4 0 1 1 48.8 0 24.4 24.4 0 1 1-48.8 0ZM935.78 622.81m-24.4 0a24.4 24.4 0 1 1 48.8 0 24.4 24.4 0 1 1-48.8 0ZM875.73 51.06l-660.52 0.01c-33.12 0-60.05 26.94-60.05 60.05v362.5c0 38.71 24.66 73.02 61.35 85.37l101.24 34.07 43.91 90.12c9.98 20.5 31.18 33.75 53.98 33.75H675.3c22.81 0 44.01-13.25 53.99-33.76l43.88-90.11L874.43 559c36.69-12.35 61.35-46.66 61.35-85.37v-362.51c0-33.12-26.93-60.06-60.05-60.06zM675.31 656.89H415.64l-49.41-101.42a30.048 30.048 0 0 0-17.42-15.31l-113.16-38.08c-12.22-4.11-20.46-15.56-20.45-28.46v-362.5l660.52-0.01V473.62c0.01 12.9-8.22 24.35-20.45 28.46L742.1 540.16M415.64 656.89M545.47 196.36c-86.92 0-157.63 70.71-157.63 157.63 0 86.91 70.71 157.62 157.63 157.62S703.1 440.9 703.1 353.99c0-86.92-70.71-157.63-157.63-157.63z m0 240.19c-45.52 0-82.57-37.04-82.57-82.56 0-45.53 37.05-82.57 82.57-82.57 45.52 0 82.57 37.04 82.57 82.57 0 45.52-37.05 82.56-82.57 82.56z m0 0M223.2 89.35c0-17.1-13.23-30.97-29.54-30.97-16.33 0-29.55 13.87-29.55 30.97 0 17.11 13.22 30.97 29.55 30.97 16.31 0 29.54-13.86 29.54-30.97zM925.7 89.35c0-17.1-13.23-30.97-29.54-30.97-16.33 0-29.55 13.87-29.55 30.97 0 17.11 13.22 30.97 29.55 30.97 16.31 0 29.54-13.86 29.54-30.97zM720.34 681.23c0-17.1-13.23-30.97-29.54-30.97-16.33 0-29.55 13.87-29.55 30.97 0 17.11 13.22 30.97 29.55 30.97 16.31-0.01 29.54-13.87 29.54-30.97zM424.5 678.18c0-17.1-13.23-30.97-29.54-30.97-16.33 0-29.55 13.87-29.55 30.97 0 17.11 13.22 30.97 29.55 30.97 16.31 0 29.54-13.87 29.54-30.97z"  horiz-adv-x="1024" />

    
    <glyph glyph-name="xianxingyanjing" unicode="&#58890;" d="M525.01 47.69c-250.39 0-416.39 234.73-416.39 329.9V390.4c0 95.17 166 329.9 416.39 329.9 253.11 0 415.58-231.82 416.4-329.63v-13.08c-0.81-98.15-163.29-329.9-416.4-329.9z m0 608.56c-219.95 0-352.34-210.8-352.34-265.85v-12.81c0-55.04 132.38-265.84 352.34-265.84 222.67 0 351.87 209.11 352.34 266.11v12.4c-0.6 57.08-129.8 265.99-352.34 265.99z m0 0M89.85 556.44m-26.03 0a26.03 26.03 0 1 1 52.06 0 26.03 26.03 0 1 1-52.06 0ZM135.4 654.47m-26.03 0a26.03 26.03 0 1 1 52.06 0 26.03 26.03 0 1 1-52.06 0ZM934.15 608.92m-26.03 0a26.03 26.03 0 1 1 52.06 0 26.03 26.03 0 1 1-52.06 0ZM174.12 385.3c0-18.96-14.65-34.33-32.75-34.33s-32.75 15.38-32.75 34.33c0 18.96 14.65 34.33 32.75 34.33s32.75-15.37 32.75-34.33zM941.41 390.18c0-18.96-14.65-34.33-32.75-34.33s-32.75 15.38-32.75 34.33c0 18.96 14.65 34.33 32.75 34.33s32.75-15.37 32.75-34.33zM525.01 215.86c-92.73 0-168.17 75.44-168.17 168.1 0 92.73 75.44 168.17 168.17 168.17s168.17-75.44 168.17-168.17c0-92.65-75.44-168.1-168.17-168.1z m0 256.23c-48.53 0-88.05-39.52-88.05-88.12 0-48.53 39.52-88.05 88.05-88.05 48.6 0 88.12 39.52 88.12 88.05 0 48.6-39.51 88.12-88.12 88.12z m0 0"  horiz-adv-x="1024" />

    
    <glyph glyph-name="xianxinghongbao" unicode="&#58891;" d="M88.08 687.97m-24.27 0a24.27 24.27 0 1 1 48.54 0 24.27 24.27 0 1 1-48.54 0ZM130.55 779.36m-24.27 0a24.27 24.27 0 1 1 48.54 0 24.27 24.27 0 1 1-48.54 0ZM935.92 700.49m-24.27 0a24.27 24.27 0 1 1 48.54 0 24.27 24.27 0 1 1-48.54 0ZM541.99 329.57c-6.55-0.01-12.89 2.2-18 6.26-12.61 9.94-14.75 28.24-4.8 40.83l116.29 147.23c9.95 12.6 28.27 14.74 40.83 4.79 12.61-9.95 14.76-28.24 4.8-40.83L564.82 340.62c-5.74-7.27-14.24-11.05-22.83-11.05z m0 0M527.47 98.85c-16.06 0-29.07 13-29.07 29.07V342.33c0 16.06 13.02 29.07 29.07 29.07 16.06 0 29.07-13.01 29.07-29.07v-214.42c0-16.06-13.01-29.06-29.07-29.06z m0 0M664.82 311.89H390.09c-16.05 0-29.07 13.01-29.07 29.07s13.02 29.07 29.07 29.07h274.73c16.06 0 29.08-13.01 29.08-29.07s-13.01-29.07-29.08-29.07z m0-113.68H390.09c-16.05 0-29.07 13.02-29.07 29.08 0 16.03 13.02 29.07 29.07 29.07h274.73c16.06 0 29.08-13.03 29.08-29.07 0.01-16.06-13.01-29.08-29.08-29.08z m0 0M827.5-35.63H216.96c-32.05 0-58.13 26.09-58.13 58.16V633.05c0 32.06 26.09 58.15 58.13 58.15H827.5c32.06 0 58.13-26.09 58.13-58.15v-610.51c0-32.08-26.07-58.17-58.13-58.17zM216.96 633.05v-610.51h610.58l-0.04 610.51H216.96z m0 0M382.62 517.08c-0.01-0.01-0.02-0.01-0.02-0.02l-3.53-3.03 0.31-0.36c-9.32-10.98-9.63-27.37 0.06-38.64l119.19-138.77c9.69-11.27 25.93-13.44 38.2-5.88l0.3-0.35 3.55 3.05 6.32 5.43 1.05 0.9c12.5 10.73 13.93 29.55 3.19 42.05l-119.2 138.76c-10.73 12.49-29.56 13.93-42.05 3.19l-1.05-0.9-6.32-5.43z"  horiz-adv-x="1024" />

    
    <glyph glyph-name="xianxinglianxiren" unicode="&#58892;" d="M839.71-63.56H186.24c-38.16 0-69.19 30.89-69.19 68.86V146.49a68.905 68.905 0 0 0 23.27 51.6L331 366.59c-45.74 52.73-68.81 125.31-72.82 165.01-4.33 42.91-7.16 150.81 60.57 225.76 44.5 49.22 109.65 74.19 193.65 74.19 88.86 0 156.99-26.4 202.51-78.47 69.56-79.55 60.87-190.5 56.55-222.61-8.65-64.16-35.74-123.71-74.64-166.39L885.5 198.15l0.01-0.01a68.918 68.918 0 0 0 23.37-51.7V5.3c0.01-37.97-31.03-68.86-69.17-68.86zM512.4 762.7c-63.71 0-111.67-17.33-142.57-51.5-49.22-54.47-46.56-138.89-43.13-172.66 3.81-37.76 30.68-110.25 76.25-146a34.429 34.429 0 0 0 13.16-26.08 34.355 34.355 0 0 0-11.61-26.8L185.91 146.5v-141.2h653.8l0.32 141.15-217.31 191.12a34.411 34.411 0 0 0-11.68 27.07 34.437 34.437 0 0 0 13.57 26.18c48.11 36.62 72.15 100.9 78.6 148.84 2.39 17.69 11.63 108.9-40.12 168.11-31.88 36.45-82.58 54.93-150.69 54.93z m0 0M143.13 627.97m-28.02 0a28.02 28.02 0 1 1 56.04 0 28.02 28.02 0 1 1-56.04 0ZM192.17 733.49m-28.02 0a28.02 28.02 0 1 1 56.04 0 28.02 28.02 0 1 1-56.04 0ZM841.85 684.46m-28.02 0a28.02 28.02 0 1 1 56.04 0 28.02 28.02 0 1 1-56.04 0ZM507.36 300.24h-5.4v-0.55c-16.43-2.61-29.02-16.73-29.02-33.89v-211.2c0-17.16 12.59-31.27 29.02-33.89v-0.53h16.62c19.02 0 34.43 15.4 34.43 34.42V265.81c0 19.01-15.41 34.43-34.43 34.43H507.36zM894.88-21.23c0-19.63-15.19-35.56-33.93-35.56-18.75 0-33.93 15.93-33.93 35.56 0 19.65 15.18 35.56 33.93 35.56 18.74 0.01 33.93-15.91 33.93-35.56zM198.59-21.55c0-19.46-14.82-35.24-33.1-35.24-18.29 0-33.1 15.78-33.1 35.24s14.81 35.23 33.1 35.23c18.28 0 33.1-15.77 33.1-35.23z"  horiz-adv-x="1024" />

    
    <glyph glyph-name="xianxingxihuan" unicode="&#58893;" d="M578.67-61.76h-336.2c-35.32 0-64.04 28.72-64.04 64.04V674.69c0 35.31 28.72 64.04 64.04 64.04h576.34c35.32 0 64.04-28.73 64.04-64.04v-256.16c0-17.68-14.34-32.02-32.02-32.02-17.68 0-32.02 14.34-32.02 32.02V674.69H242.47v-672.41h336.2c17.68 0 32.02-14.34 32.02-32.02 0-17.68-14.34-32.02-32.02-32.02z m0 0M88.87 710.33m-25.06 0a25.06 25.06 0 1 1 50.12 0 25.06 25.06 0 1 1-50.12 0ZM132.72 804.7m-25.06 0a25.06 25.06 0 1 1 50.12 0 25.06 25.06 0 1 1-50.12 0ZM901.64 760.85m-25.06 0a25.06 25.06 0 1 1 50.12 0 25.06 25.06 0 1 1-50.12 0ZM253.37 697.35c0-17.43-14.86-31.57-33.19-31.57-18.34 0-33.19 14.14-33.19 31.57s14.85 31.55 33.19 31.55c18.33 0 33.19-14.12 33.19-31.55zM872.74 698.56c0-17.43-14.86-31.57-33.19-31.57-18.34 0-33.19 14.14-33.19 31.57s14.85 31.55 33.19 31.55c18.33 0 33.19-14.12 33.19-31.55zM257.74-24.23c0-17.43-14.86-31.57-33.19-31.57-18.34 0-33.19 14.14-33.19 31.57s14.85 31.55 33.19 31.55c18.33 0.01 33.19-14.11 33.19-31.55zM658.72 546.61H402.57c-17.68 0-32.02 14.33-32.02 32.02 0 17.68 14.34 32.02 32.02 32.02h256.15c17.68 0 32.02-14.34 32.02-32.02 0-17.69-14.34-32.02-32.02-32.02z m0 0M738.76-52.14c-14.46 0-28.02 5.66-38.17 15.92L557.36 108.65c-30.34 30.7-44.48 73.08-38.77 116.31 5.67 42.93 30.56 80.19 68.29 102.21 47.42 27.64 107.25 22.46 151.89-11.46 44.65 33.92 104.48 39.13 151.89 11.46 37.73-22.02 62.61-59.28 68.29-102.21 5.7-43.22-8.43-85.62-38.77-116.31L776.96-36.21c-10.18-10.27-23.73-15.93-38.2-15.93z m-85.85 320.1c-9.63 0-19.04-2.32-27.31-7.15-23.34-13.64-29.35-34.62-30.83-45.92-2.58-19.5 3.71-38.54 17.25-52.22l126.74-128.21 126.75 128.21c13.54 13.69 19.82 32.72 17.24 52.22-1.48 11.29-7.48 32.27-30.84 45.91-22.56 13.16-53.8 7.73-74.26-12.97l-11.57-11.68a38.4 38.4 0 0 0-27.31-11.4 38.47 38.47 0 0 0-27.33 11.4l-11.55 11.69c-12.99 13.12-30.29 20.12-46.98 20.12z m0 0"  horiz-adv-x="1024" />

    
    <glyph glyph-name="xianxingerji" unicode="&#58894;" d="M532.96 784.45c-229.65 0-416.46-186.82-416.46-416.46v-320.35c0-35.33 28.74-64.08 64.07-64.08h128.14c53 0 96.11 43.11 96.1 96.11V223.83c0 53-43.1 96.11-96.1 96.11H180.57v48.05c0 194.31 158.08 352.39 352.39 352.39 194.3 0 352.39-158.08 352.39-352.39v-48.05H757.21c-53 0-96.11-43.11-96.11-96.11v-144.16c0-53 43.11-96.11 96.11-96.11h128.14c35.33 0 64.07 28.75 64.07 64.07V367.99c0 229.63-186.82 416.46-416.46 416.46zM308.71 255.86c17.65 0 32.03-14.37 32.03-32.04v-144.16c0-17.67-14.38-32.04-32.03-32.04H180.57V255.86h128.14z m576.54-208.24H757.21c-17.66 0-32.03 14.37-32.03 32.04V223.83c0 17.67 14.37 32.04 32.03 32.04h128.14l-0.1-208.25zM89.85 601.39m-26.03 0a26.03 26.03 0 1 1 52.06 0 26.03 26.03 0 1 1-52.06 0ZM135.4 699.42m-26.03 0a26.03 26.03 0 1 1 52.06 0 26.03 26.03 0 1 1-52.06 0ZM934.15 653.87m-26.03 0a26.03 26.03 0 1 1 52.06 0 26.03 26.03 0 1 1-52.06 0ZM592.53 653.03C749.71 622.92 812.8 480.31 824.25 405.7c3.27-21.32-11.35-41.25-32.67-44.52-21.28-3.26-41.15 11.31-44.5 32.55-1.16 7.22-29.03 167.92-187.33 185.32-21.44 2.35-36.88 21.68-34.5 43.11 2.37 21.43 21.67 36.88 43.1 34.51 8.29-0.92 16.36-2.14 24.18-3.64zM196.4 20.11c0-17.62-14.66-31.91-32.74-31.91-18.1 0-32.75 14.29-32.75 31.91 0 17.63 14.65 31.91 32.75 31.91 18.08 0 32.74-14.29 32.74-31.91zM937.41 23.36c0-17.62-14.66-31.91-32.74-31.91-18.1 0-32.75 14.29-32.75 31.91 0 17.63 14.65 31.91 32.75 31.91 18.08 0 32.74-14.28 32.74-31.91z"  horiz-adv-x="1024" />

    
    <glyph glyph-name="muyulou" unicode="&#58949;" d="M512.1 383.97m-448.09 0a448.09 448.09 0 1 1 896.18 0 448.09 448.09 0 1 1-896.18 0ZM736.14 721.67m-15.9 0a15.9 15.9 0 1 1 31.8 0 15.9 15.9 0 1 1-31.8 0ZM416.08 747.45m-15.9 0a15.9 15.9 0 1 1 31.8 0 15.9 15.9 0 1 1-31.8 0ZM160.03 496.45m-23.31 0a23.31 23.31 0 1 1 46.62 0 23.31 23.31 0 1 1-46.62 0ZM640.12 18.67m-23.31 0a23.31 23.31 0 1 1 46.62 0 23.31 23.31 0 1 1-46.62 0ZM208.61 244.8m-11.24 0a11.24 11.24 0 1 1 22.48 0 11.24 11.24 0 1 1-22.48 0ZM179.28 609.02l-3.61 2.5-4.39 0.17 2.5 3.61 0.16 4.39 3.61-2.51 4.39-0.16-2.5-3.61zM129.94 384.2l-3.61 2.51-4.39 0.16 2.51 3.61 0.16 4.39 3.61-2.51 4.39-0.16-2.51-3.61zM880.88 383.87l-10.44 7.25-12.69 0.46 7.24 10.44 0.47 12.7 10.43-7.25 12.7-0.46-7.24-10.44zM467.64 72.93l-10.43 7.24-12.7 0.47 7.24 10.44 0.47 12.69 10.44-7.24 12.7-0.47-7.25-10.44zM632.41 737.56l-10.43 7.25-12.7 0.46 7.24 10.44 0.47 12.7 10.44-7.25 12.69-0.46-7.24-10.44zM820.64 500.71l-10.44 7.25-12.69 0.47 7.24 10.43 0.47 12.7 10.43-7.24 12.7-0.47-7.24-10.44zM545.18 709.42H436.17c-0.17 0-0.35-0.01-0.52-0.03-3.41-0.38-5.27-0.53-8.59-1.28l-0.72-0.22L348 692.34c-2.52-0.5-4.17-2.95-3.66-5.48l6.63-33.39c0.5-2.52 2.95-4.17 5.48-3.66l78.34 15.55h0.32l70.52 0.65a4.66 4.66 0 0 0 4.7-4.66v-112.1c0-2.57 2.09-4.66 4.66-4.66h34.04c2.57 0 4.66 2.09 4.66 4.66V700.92c-0.01 4.7-3.81 8.5-8.51 8.5zM549.02 537.1h-34.04c-6.71 0-12.16 5.46-12.16 12.16V658.49l-67.26-0.62-77.67-15.41c-6.58-1.31-12.99 2.98-14.29 9.56l-6.63 33.39c-0.63 3.19 0.01 6.43 1.82 9.13 1.81 2.7 4.56 4.53 7.74 5.17l78 15.48 0.88 0.24c3.38 0.76 5.48 0.99 8.38 1.31l1.03 0.11c0.46 0.05 0.9 0.07 1.34 0.07h109.01c8.82 0 16-7.18 16-16v-151.66c0.01-6.71-5.44-12.16-12.15-12.16z m-31.2 15h28.36V700.92c0 0.55-0.45 1-1 1H436.33l-0.91-0.1c-2.59-0.28-4.06-0.44-6.47-0.97l-1.15-0.31-75.56-14.99 5.52-27.82 76.23 15.13 1 0.02 70.56 0.65c3.26 0.04 6.35-1.22 8.67-3.52 2.32-2.3 3.6-5.37 3.6-8.64V552.1zM569.19 377.67h-73.46c-7.02 0-12.71 5.69-12.71 12.71V562.02c0 7.02 5.69 12.71 12.71 12.71h73.46c7.02 0 12.71-5.69 12.71-12.71v-171.64c0-7.02-5.69-12.71-12.71-12.71zM569.19 370.17h-73.46c-11.14 0-20.21 9.07-20.21 20.21V562.02c0 11.14 9.07 20.21 20.21 20.21h73.46c11.14 0 20.21-9.07 20.21-20.21v-171.64c0-11.14-9.07-20.21-20.21-20.21z m-73.46 197.06a5.22 5.22 0 0 1-5.21-5.21v-171.64a5.22 5.22 0 0 1 5.21-5.21h73.46a5.22 5.22 0 0 1 5.21 5.21V562.02a5.22 5.22 0 0 1-5.21 5.21h-73.46zM569.19 567.23h-17.46v-40.85a5.22 5.22 0 0 0-5.21-5.21h-56.01v-130.79a5.22 5.22 0 0 1 5.21-5.21h73.46a5.22 5.22 0 0 1 5.21 5.21V562.02c0.01 2.87-2.33 5.21-5.2 5.21zM597.59 293.61H467.33c-12.9 0-23.36 10.46-23.36 23.36V467.3c0 12.9 10.46 23.36 23.36 23.36h130.25c12.9 0 23.36-10.46 23.36-23.36v-150.33c0.01-12.9-10.45-23.36-23.35-23.36zM597.59 286.11H467.33c-17.02 0-30.86 13.84-30.86 30.86V467.3c0 17.02 13.85 30.86 30.86 30.86h130.25c17.02 0 30.86-13.84 30.86-30.86v-150.33c0.01-17.02-13.84-30.86-30.85-30.86zM467.33 483.16c-8.75 0-15.86-7.12-15.86-15.86v-150.33c0-8.75 7.12-15.86 15.86-15.86h130.25c8.75 0 15.86 7.12 15.86 15.86V467.3c0 8.75-7.12 15.86-15.86 15.86H467.33zM597.59 483.16h-13.47v-22.19c0-8.75-7.12-15.86-15.86-15.86H451.47v-128.14c0-8.75 7.12-15.86 15.86-15.86h130.25c8.75 0 15.86 7.12 15.86 15.86V467.3c0.01 8.75-7.11 15.86-15.85 15.86zM625.25 58.51H439.66c-30.21 0-54.71 24.49-54.71 54.71v258.8c0 30.21 24.49 54.71 54.71 54.71h185.59c30.21 0 54.71-24.49 54.71-54.71v-258.8c0-30.22-24.49-54.71-54.71-54.71zM625.25 51.01H439.66c-34.3 0-62.21 27.91-62.21 62.21v258.8c0 34.3 27.91 62.21 62.21 62.21h185.59c34.3 0 62.21-27.91 62.21-62.21v-258.8c0-34.3-27.91-62.21-62.21-62.21zM439.66 419.22c-26.03 0-47.21-21.18-47.21-47.21v-258.8c0-26.03 21.18-47.21 47.21-47.21h185.59c26.03 0 47.21 21.18 47.21 47.21v258.8c0 26.03-21.18 47.21-47.21 47.21H439.66zM627.71 419.17c0.6-3 0.92-6.1 0.92-9.28v-258.8c0-26.03-21.18-47.21-47.21-47.21H395.84c-0.98 0-1.95 0.04-2.92 0.1 4.32-21.6 23.43-37.93 46.28-37.93h185.59c26.03 0 47.21 21.18 47.21 47.21v258.8c0 25.06-19.61 45.6-44.29 47.11zM384.96 336.62h295v-16.67h-295zM496.31 464v-35.86h-16.67V464c0 4.6 3.73 8.33 8.33 8.33 4.61 0 8.34-3.73 8.34-8.33zM540.79 464v-35.86h-16.67V464c0 4.6 3.73 8.33 8.33 8.33 4.61 0 8.34-3.73 8.34-8.33zM584.45 464v-35.86h-16.67V464c0 4.6 3.73 8.33 8.33 8.33s8.34-3.73 8.34-8.33zM384.96 156.28h295v-16.67h-295zM314.8 670.75l-19.32 9.04a5.329 5.329 0 0 0-2.57 7.09 5.329 5.329 0 0 0 7.09 2.57l19.32-9.04a5.329 5.329 0 0 0 2.57-7.09 5.332 5.332 0 0 0-7.09-2.57zM319.37 653.41l-20.06-7.27a5.334 5.334 0 0 0-3.63 10.03l20.06 7.27c2.77 1 5.83-0.43 6.83-3.2 1-2.76-0.43-5.82-3.2-6.83zM332.89 642.96l-9.04-19.32a5.329 5.329 0 0 0-7.09-2.57 5.329 5.329 0 0 0-2.57 7.09l9.04 19.32a5.329 5.329 0 0 0 7.09 2.57 5.329 5.329 0 0 0 2.57-7.09z"  horiz-adv-x="1024" />

    
    <glyph glyph-name="coupon" unicode="&#59361;" d="M54.690909 250.181818c-16.290909 0-29.090909 12.8-29.090909 29.090909s12.8 29.090909 29.090909 29.090909c41.890909 0 75.636364 33.745455 75.636364 75.636364s-33.745455 75.636364-75.636364 75.636364c-16.290909 0-29.090909 12.8-29.090909 29.090909s12.8 29.090909 29.090909 29.090909c73.309091 0 133.818182-60.509091 133.818182-133.818182S128 250.181818 54.690909 250.181818zM878.545455 19.781818H147.781818c-67.490909 0-122.181818 54.690909-122.181818 122.181818v128c0 16.290909 12.8 29.090909 29.090909 29.090909s29.090909-12.8 29.090909-29.090909v-128c0-34.909091 29.090909-64 64-64h730.763637c34.909091 0 64 29.090909 64 64V279.272727c0 16.290909 12.8 29.090909 29.090909 29.090909S1000.727273 295.563636 1000.727273 279.272727v-137.309091c0-67.490909-54.690909-122.181818-122.181818-122.181818zM971.636364 459.636364c-16.290909 0-29.090909 12.8-29.090909 29.090909V626.036364c0 34.909091-29.090909 64-64 64H147.781818c-34.909091 0-64-29.090909-64-64V488.727273c0-16.290909-12.8-29.090909-29.090909-29.090909S25.6 472.436364 25.6 488.727273V626.036364c0 67.490909 54.690909 122.181818 122.181818 122.181818h730.763637c67.490909 0 122.181818-54.690909 122.181818-122.181818V488.727273c0-16.290909-12.8-29.090909-29.090909-29.090909zM971.636364 250.181818C898.327273 250.181818 837.818182 310.690909 837.818182 384s60.509091 133.818182 133.818182 133.818182c16.290909 0 29.090909-12.8 29.090909-29.090909s-12.8-29.090909-29.090909-29.090909c-41.890909 0-75.636364-33.745455-75.636364-75.636364s33.745455-75.636364 75.636364-75.636364c16.290909 0 29.090909-12.8 29.090909-29.090909s-12.8-29.090909-29.090909-29.090909zM384 27.927273c-16.290909 0-29.090909 12.8-29.090909 29.090909V221.090909c0 16.290909 12.8 29.090909 29.090909 29.090909s29.090909-12.8 29.090909-29.090909v-164.072727c0-16.290909-12.8-29.090909-29.090909-29.090909zM384 300.218182c-16.290909 0-29.090909 12.8-29.090909 29.090909v108.218182c0 16.290909 12.8 29.090909 29.090909 29.090909s29.090909-12.8 29.090909-29.090909v-108.218182c0-16.290909-12.8-29.090909-29.090909-29.090909zM384 517.818182c-16.290909 0-29.090909 12.8-29.090909 29.090909V708.654545c0 16.290909 12.8 29.090909 29.090909 29.09091s29.090909-12.8 29.090909-29.09091V546.909091c0-16.290909-12.8-29.090909-29.090909-29.090909z"  horiz-adv-x="1024" />

    
    <glyph glyph-name="emaxcitygerenxinxitubiaoji03" unicode="&#58910;" d="M864 832l-704 0C142.336 832 128 817.664 128 800l0-832C128-49.664 142.336-64 160-64l704 0c17.664 0 32 14.336 32 32l0 832C896 817.664 881.664 832 864 832zM832 0 192 0 192 768l640 0L832 0zM353.92 576c17.6 0 32 14.336 32 32S371.584 640 353.92 640L353.28 640C335.616 640 321.6 625.664 321.6 608S336.256 576 353.92 576zM353.92 384c17.6 0 32 14.336 32 32S371.584 448 353.92 448L353.28 448C335.616 448 321.6 433.664 321.6 416S336.256 384 353.92 384zM353.92 192c17.6 0 32 14.336 32 32S371.584 256 353.92 256L353.28 256c-17.6 0-31.616-14.336-31.616-32S336.256 192 353.92 192zM480 576l192 0C689.664 576 704 590.336 704 608S689.664 640 672 640l-192 0C462.336 640 448 625.664 448 608S462.336 576 480 576zM480 384l192 0C689.664 384 704 398.336 704 416S689.664 448 672 448l-192 0C462.336 448 448 433.664 448 416S462.336 384 480 384zM480 192l192 0c17.664 0 32 14.336 32 32S689.664 256 672 256l-192 0C462.336 256 448 241.664 448 224S462.336 192 480 192z"  horiz-adv-x="1024" />

    
    <glyph glyph-name="pay" unicode="&#59009;" d="M799.488-4.448 159.936-4.448c-52.928 0-96 43.072-96 96L63.936 670.048c0 52.928 43.072 96 96 96l642.496 0c52.928 0 96-43.072 96-96L898.432 576c0-17.664-14.304-32-32-32s-32 14.336-32 32L834.432 670.048c0 17.632-14.336 32-32 32L159.936 702.048c-17.632 0-32-14.368-32-32l0-578.496c0-17.664 14.368-32 32-32l639.552 0c17.664 0 32 14.336 32 32l0 98.944c0 17.696 14.304 32 32 32s32-14.304 32-32l0-98.944C895.488 38.624 852.448-4.448 799.488-4.448zM661.472 381.888m-31.328 0a0.979 0.979 0 1 0 62.656 0 0.979 0.979 0 1 0-62.656 0ZM896 256 576 256c-35.296 0-64 28.704-64 64l0 128c0 35.296 28.704 64 64 64l320 0c35.296 0 64-28.704 64-64l0-128C960 284.704 931.296 256 896 256zM576 448l0-128 320.064 0L896 448 576 448z"  horiz-adv-x="1024" />

    
    <glyph glyph-name="checkin" unicode="&#59153;" d="M810.666667 42.666667V725.333333H341.333333V810.666667h554.666667v-853.333334H341.333333v85.333334h469.333334zM42.666667 426.666667h427.349333L332.8 566.869333 393.130667 627.2l243.456-243.498667-243.456-243.498666L332.8 200.533333l137.813333 140.8H42.666667v85.333334z"  horiz-adv-x="1024" />

    


  </font>
</defs>
</svg>
